<svg xmlns="http://www.w3.org/2000/svg" id="a" data-name="Layer 1" viewBox="0 0 281.17 305.55"><defs><style>      .b {        fill: #f59120;      }      .c {        fill: #016938;      }      .d {        fill: #fff;      }      .e {        fill: #fbed1d;      }      .f {        fill: #ee4037;      }      .g {        fill: #00a44f;      }    </style></defs><path class="g" d="M204.11,181.26c-8.95-1.95-23.34-2.18-41.86,7.25,7.01,1.92,24.6,7.87,38.41,21.96,2.69,2.14,5.02,4.45,7.08,6.88,5.78-9.29,9.59-19.25,11.68-29.38-1.49-1.16-6.74-4.86-15.31-6.73Z"></path><path class="e" d="M133.27,248.79c-2.61-.79-4.62-1.52-5.88-2.01-.32,3.95-.43,8.24-.22,12.76,1.34-2.85,3.39-6.72,6.1-10.74Z"></path><path class="g" d="M209.33,219.37c3.54,4.68,5.95,9.83,7.2,15.34,5.96-4.43,10.94-9.56,15.05-15.16-1.01-16.41-7.23-25.89-10.16-29.5-2.26,10.12-6.2,20.05-12.09,29.32Z"></path><path class="b" d="M187.35,248.23c.56-.14,1.06-.33,1.6-.48-.85-1.32-1.7-2.54-2.55-3.66-2.72,2.07-5.6,4.05-8.65,5.94.4-.06.8-.11,1.21-.18,2.7-.65,5.47-1.22,8.39-1.63Z"></path><path class="f" d="M163.12,255.24c.08-.06.15-.13.24-.17,1.24-.57,2.43-1.16,3.63-1.76-.91.02-1.83.07-2.72.07-11.72,0-21.69-1.99-28.55-3.89-4.83,7-7.59,13.68-8.17,15.16.5,4.9,1.4,9.99,2.9,15.13,3.72-4.56,14.67-16.48,32.68-24.55Z"></path><path class="c" d="M206.4,219.43c-2.06-2.51-4.47-4.88-7.23-7.09-1.37-.65-26.11-12.12-59.58-3.59,7.7,2.44,24.69,9.13,39.08,23.94,0,0,0,0,0,0,1.02.76,4.3,3.41,8.11,8.08,8.03-6.42,14.52-13.64,19.62-21.35Z"></path><path class="b" d="M172,250.68c4.68-2.61,8.99-5.44,12.95-8.46-4.15-5.08-7.6-7.58-7.78-7.71,0,0-.02-.01-.03-.02-7.9-3.79-15.67-4.26-22.94-1.33-7.03,2.84-12.71,8.51-17.01,14.29,8.16,2.18,20.52,4.34,34.81,3.22Z"></path><path class="f" d="M119.93,76.47c.49,1.34,1.05,2.64,1.66,3.92,2.63-3.09,6.71-7.25,12.88-12.09,8.19-6.43,4.78-15.21,3.63-17.61-.02-.04-.04-.08-.06-.12-.13-.27-.23-.45-.26-.5-.04-.06-.04-.13-.07-.2-1.78-3.84-3.11-7.5-4.07-10.83-2.84-9.82-3.16-18.08-3.02-22.77-8.2,11.88-18.99,37.42-10.69,60.2Z"></path><path class="g" d="M134.69,246.75c4.55-6.28,10.74-12.6,18.61-15.78,3.45-1.4,7.01-2.05,10.64-2.04-18.71-3.18-32.91,1.03-32.91,1.03,0,0-2.46,4.23-3.42,14.35,1.15.47,3.56,1.39,7.08,2.44Z"></path><path class="c" d="M188.67,241.58c1.01,1.33,2.03,2.8,3.04,4.41,8.84-2.62,16.56-6.31,23.15-10.87-1.06-5.28-3.28-10.21-6.53-14.71-5.16,7.64-11.67,14.79-19.66,21.17Z"></path><path class="c" d="M145.79,103.61c4.28,2.12,9.06,3.93,14.27,5.46,4.12,1.2,8.37,2.07,13.02,3.05,14.72,2.66,29.47,10.3,41.57,20.83-5.11-12.55-12.91-22.55-20.92-30.24-19.3-6.22-36.32-3.21-47.93.9Z"></path><path class="c" d="M234.35,162.18c-3.5-7.43-8.43-14.47-14.32-20.77,4.02,14.47,4.96,30.27,2.01,45.74,2.17,2.23,9.82,11.21,11.73,28.59,10.97-21.7,6.49-40.99.58-53.55Z"></path><path class="e" d="M120.29,30.96c-1.66,2.73-3.31,5.65-4.85,8.7l-.85,1.69c-6.32,12.54-12.3,24.39-4.56,32.98,4.85,5.38,7.25,8.44,8.44,10.09.37-.55.85-1.23,1.46-2.02-.84-1.66-1.61-3.35-2.25-5.12-5.79-15.89-2.65-33.03,2.6-46.32Z"></path><path class="b" d="M107.42,107.58c1.09-3.72,3.76-11.08,9.72-20.93-.71-1.09-2.88-4.09-8.86-10.72-8.83-9.79-2.21-22.93,4.2-35.64l.85-1.68c2.82-5.61,6.04-10.82,8.97-15.15-14.58,16.05-36.76,49-14.87,84.13Z"></path><path class="b" d="M142.11,57.99c0,3.9-1.37,8.4-6.18,12.17-6.54,5.13-10.68,9.51-13.17,12.54,4.35,7.92,11.12,14.4,20.22,19.43,11.11-4.26,27.7-7.88,46.77-3.04-6.29-5.45-12.44-9.5-17.21-12.27-14.79-8.58-24.29-18.93-30.43-28.83Z"></path><path class="g" d="M213.49,112.19c-4.93-3.19-9.79-5.65-14.53-7.56,7.81,8.27,15.08,18.8,19.51,31.81.02.03.05.05.06.08,7.5,7.28,13.75,15.68,17.97,24.65,4.62,9.8,8.37,23.56,5.14,39.35,3.91-10.95,5.35-22.53,4.46-33.52-1.8-22.29-13.99-42.78-32.61-54.81Z"></path><path class="c" d="M216.53,138.12c-4.75-.4-32.2-2.02-54.85,11.44,10.28.38,37.02,4.54,58.37,35,2.57-15.35,1.29-30.97-3.07-45.13-.14-.44-.31-.86-.45-1.3Z"></path><path class="g" d="M146.74,131.03c10.37-2.77,36.65-7.79,64.68,2.3-11.41-9.48-25.03-16.36-38.64-18.84-1.39.27-11.35,2.58-26.04,16.54Z"></path><path class="c" d="M134.97,108.37c3.62-.41,8.67-.72,14.71-.41-2.42-1-4.71-2.07-6.88-3.23-3.14,1.25-5.77,2.53-7.83,3.64Z"></path><path class="g" d="M121.19,84.73c-.6.83-1.02,1.46-1.27,1.87,1.52,2.39,6.85,11.22,9.93,22.01,1.82-1.16,5.37-3.23,10.3-5.33-8.34-4.91-14.66-11.11-18.96-18.54Z"></path><g><g><path class="d" d="M40.76,147.7l-5.42-22.78h2.89l4.3,19.11h-.48l4.79-19.11h3.01l4.79,19.11h-.48l4.3-19.11h2.89l-5.42,22.78h-3.01l-4.91-19.29h.66l-4.91,19.29h-3.01Z"></path><path class="d" d="M68.03,147.94c-1.55,0-2.82-.31-3.82-.92-1-.61-1.75-1.54-2.24-2.78s-.74-2.82-.74-4.73.25-3.55.74-4.8,1.24-2.18,2.24-2.78c1-.6,2.28-.9,3.82-.9s2.79.3,3.79.9c1,.6,1.75,1.53,2.23,2.78s.72,2.85.72,4.8-.24,3.48-.72,4.73-1.22,2.17-2.23,2.78c-1,.61-2.27.92-3.79.92ZM68.03,145.47c.92,0,1.66-.21,2.21-.63.55-.42.96-1.06,1.23-1.91.27-.85.41-1.99.41-3.42s-.14-2.63-.41-3.49c-.27-.86-.68-1.5-1.23-1.91-.55-.41-1.29-.62-2.21-.62s-1.67.21-2.24.62c-.57.41-.99,1.05-1.26,1.91-.27.86-.41,2.03-.41,3.49s.14,2.56.41,3.42c.27.85.69,1.49,1.25,1.91.56.42,1.31.63,2.26.63Z"></path><path class="d" d="M77.06,147.7v-16.4h2.35l.48,2.65v13.75h-2.83ZM77.51,135.48c1.14-1.4,2.33-2.49,3.57-3.27,1.23-.77,2.58-1.17,4.05-1.19v2.65c-1.38.02-2.65.33-3.81.93-1.15.6-2.3,1.46-3.45,2.59l-.36-1.72Z"></path><path class="d" d="M90.88,147.7c-1.32.26-2.32.14-2.99-.36-.67-.5-1.01-1.42-1.01-2.77v-19.65h2.74v19.65c0,.3.02.52.08.65.05.13.16.22.33.27.17.05.46.08.86.08v2.14Z"></path><path class="d" d="M98.19,147.97c-2.05,0-3.58-.7-4.6-2.11-1.02-1.4-1.54-3.54-1.54-6.41s.5-4.99,1.49-6.37c.99-1.37,2.51-2.06,4.56-2.06,1.28,0,2.43.23,3.43.68,1,.45,2.12,1.13,3.34,2.03.02.02.05.04.09.04.04.01.07.03.09.05l-.36,2.44c-1.24-.9-2.36-1.59-3.36-2.06-.99-.47-1.95-.71-2.87-.71-1.28,0-2.19.46-2.71,1.37-.52.91-.78,2.44-.78,4.59s.29,3.69.87,4.62,1.5,1.4,2.77,1.4,2.35-.45,3.07-1.34c.72-.89,1.08-2.24,1.08-4.05v-6.29l.48-2.5h1.66v12.16h-2.17v-.81l1.84-2.56c0,2.97-.62,5.03-1.87,6.17-1.24,1.14-2.75,1.72-4.51,1.72ZM106.77,147.7c-1.32.26-2.32.14-2.98-.36-.66-.5-.99-1.42-.99-2.77v-19.65h2.71v19.65c0,.3.02.52.08.65.05.13.16.22.33.27.17.05.46.08.86.08v2.14Z"></path></g><g><path class="d" d="M43.8,214.79c-2.03,0-3.67-.4-4.92-1.19-1.25-.79-2.17-2.03-2.75-3.72-.58-1.69-.87-3.9-.87-6.65s.29-5,.87-6.7c.58-1.7,1.5-2.94,2.75-3.73s2.89-1.19,4.92-1.19,3.56.35,4.79,1.04c1.22.69,2.15,1.8,2.77,3.33l-2.56,1.17c-.44-.96-1.05-1.66-1.82-2.08-.77-.42-1.79-.63-3.05-.63-1.38,0-2.49.27-3.31.81-.82.54-1.41,1.45-1.78,2.71s-.54,3.02-.54,5.27.18,3.94.53,5.21.94,2.17,1.76,2.71c.82.54,1.94.81,3.34.81,1.04,0,2.07-.14,3.08-.42,1.01-.28,2.14-.76,3.39-1.44l-2.08,2.74v-9.18l1.32,1.41h-6.98v-2.68h8.55v10.38c-1.22.74-2.42,1.26-3.58,1.56-1.16.3-2.44.45-3.82.45Z"></path><path class="d" d="M52.85,209.91c0-1.69.45-2.94,1.35-3.76.9-.82,2.31-1.23,4.21-1.23h4.18v-1.71c0-.76-.11-1.35-.32-1.76-.21-.41-.57-.7-1.07-.87-.5-.17-1.2-.26-2.11-.26s-1.74.15-2.38.44c-.64.29-1.22.77-1.75,1.43l-1.72-1.57c.7-.98,1.5-1.69,2.39-2.11.89-.42,2.1-.63,3.63-.63,2.15,0,3.7.42,4.65,1.25.95.83,1.43,2.19,1.43,4.08v8.22c0,.3.02.52.08.65.05.13.16.22.33.27s.47.08.89.08v2.14c-.86.18-1.58.2-2.14.06-.56-.14-.99-.42-1.29-.83s-.47-.96-.51-1.64l1.11-.21c-.5.76-1.06,1.35-1.67,1.78-.61.42-1.23.71-1.87.87-.63.16-1.29.24-1.97.24h-.06c-1.85,0-3.21-.41-4.09-1.23-.88-.82-1.32-2.05-1.32-3.67ZM55.68,209.85c0,.96.22,1.65.66,2.06.44.41,1.18.62,2.23.62s2.03-.28,2.83-.83c.8-.55,1.2-1.63,1.2-3.24v-1.26h-4.03c-1.04,0-1.79.21-2.23.63-.44.42-.66,1.09-.66,2.02Z"></path><path class="d" d="M68.46,214.55v-16.4h2.26l.48,2.02-.84-.15c.82-.66,1.73-1.19,2.72-1.58.99-.39,2.05-.59,3.18-.59,1.18,0,2.15.25,2.9.75.75.5,1.3,1.25,1.64,2.26l-1.02-.24c.86-.86,1.82-1.54,2.87-2.03,1.05-.49,2.2-.74,3.45-.74,1.69,0,2.94.51,3.76,1.52.82,1.01,1.23,2.56,1.23,4.65v7.43c0,.3.02.51.08.63s.17.21.35.26.47.08.87.08v2.14c-.9.18-1.66.2-2.27.04-.61-.15-1.07-.49-1.38-1.02-.31-.53-.47-1.25-.47-2.15v-7.49c0-.9-.09-1.62-.26-2.15-.17-.53-.45-.91-.84-1.14s-.93-.35-1.61-.35c-.98,0-1.91.2-2.77.6-.86.4-1.68.93-2.44,1.59l.51-1.29c.24.82.36,1.77.36,2.83v10.53h-2.68v-10.62c0-.9-.1-1.61-.29-2.14-.19-.52-.49-.9-.9-1.14-.41-.24-.97-.36-1.67-.36-.94,0-1.85.17-2.72.51-.87.34-1.71.81-2.51,1.42l.75-.96v13.3h-2.74Z"></path><path class="d" d="M95.66,207.12l.06-2.17h9.72l-1.29,1.32c.1-2.07-.16-3.6-.78-4.59-.62-.99-1.66-1.49-3.1-1.49s-2.53.5-3.15,1.49c-.61.99-.91,2.49-.89,4.5,0,2.23.36,3.81,1.08,4.74.72.93,1.86,1.4,3.4,1.4s3.01-.44,4.39-1.32l1.32,1.9c-1.77,1.26-3.75,1.9-5.96,1.9-2.41,0-4.19-.73-5.34-2.2s-1.73-3.55-1.73-6.26c0-1.83.26-3.37.77-4.62s1.28-2.21,2.3-2.86c1.02-.65,2.3-.98,3.82-.98s2.75.33,3.75.98c.99.65,1.73,1.6,2.23,2.84.49,1.24.74,2.77.74,4.57v.84h-11.35Z"></path><path class="d" d="M119.76,209.82c0,1.52-.51,2.73-1.52,3.63-1.01.89-2.44,1.34-4.29,1.34-1.18,0-2.26-.2-3.22-.6s-1.86-1.04-2.68-1.93l1.66-1.96c.7.74,1.39,1.26,2.08,1.55s1.45.44,2.32.44c.92,0,1.67-.2,2.23-.59.56-.39.84-.97.84-1.73,0-.66-.21-1.17-.62-1.52-.41-.35-1.05-.58-1.91-.68l-1.69-.27c-1.38-.22-2.48-.72-3.28-1.5-.8-.78-1.2-1.82-1.2-3.1,0-1.56.53-2.8,1.58-3.7,1.05-.9,2.46-1.35,4.23-1.35.98,0,1.88.15,2.69.44.81.29,1.55.75,2.21,1.37l-1.26,2.02c-.56-.46-1.13-.8-1.72-1.02-.58-.22-1.22-.33-1.93-.33-.92,0-1.68.2-2.27.59-.59.39-.89.96-.89,1.7,0,.7.23,1.24.68,1.62.45.38,1.08.64,1.88.78l1.78.3c1.44.24,2.52.72,3.24,1.43.71.71,1.07,1.74,1.07,3.08Z"></path></g><g><path class="d" d="M38.26,181.04h-2.95v-18.39c0-1.08.14-1.94.42-2.57s.73-1.09,1.35-1.38c.62-.29,1.47-.44,2.56-.44h8.61v2.71h-8.82c-.42,0-.72.1-.9.29-.18.19-.27.51-.27.95v18.84ZM37.78,168.19h9.39v2.68h-9.39v-2.68Z"></path><path class="d" d="M52.13,161.39c-.54,0-.97-.16-1.29-.47-.32-.31-.48-.74-.48-1.28s.16-.97.48-1.29c.32-.32.75-.48,1.29-.48s.94.16,1.26.48c.32.32.48.75.48,1.29s-.16.97-.48,1.28c-.32.31-.74.47-1.26.47ZM54.84,181.04c-.92.2-1.69.22-2.29.06-.6-.16-1.06-.51-1.38-1.04-.32-.53-.48-1.25-.48-2.15v-13.27h2.86v13.27c0,.3.02.52.08.65.05.13.17.22.35.27s.47.08.87.08v2.14Z"></path><path class="d" d="M56.92,181.04v-16.4h2.35l.48,2.65v13.75h-2.83ZM57.37,168.82c1.14-1.4,2.33-2.49,3.57-3.27s2.58-1.17,4.05-1.19v2.65c-1.38.02-2.65.33-3.81.93-1.15.6-2.3,1.46-3.45,2.59l-.36-1.71Z"></path><path class="d" d="M68.06,173.6l.06-2.17h9.72l-1.29,1.32c.1-2.07-.16-3.6-.78-4.59-.62-.99-1.66-1.49-3.1-1.49s-2.53.5-3.15,1.49-.91,2.49-.89,4.5c0,2.23.36,3.81,1.08,4.74.72.93,1.86,1.4,3.4,1.4s3.01-.44,4.39-1.32l1.32,1.9c-1.77,1.26-3.75,1.9-5.96,1.9-2.41,0-4.19-.73-5.34-2.2s-1.73-3.55-1.73-6.26c0-1.83.26-3.37.77-4.62s1.28-2.21,2.3-2.86c1.02-.65,2.3-.98,3.82-.98s2.75.33,3.75.98c.99.65,1.74,1.6,2.23,2.84.49,1.24.74,2.77.74,4.57v.84h-11.35Z"></path><path class="d" d="M80.46,167.07v-2.44h7.19v2.44h-7.19ZM81.72,162.26c0-1.38.31-2.43.92-3.13.61-.7,1.52-1.05,2.72-1.05.62,0,1.19.07,1.7.21.51.14.98.36,1.4.66l-.75,2.05c-.62-.28-1.22-.42-1.81-.42s-.93.15-1.1.44c-.17.29-.25.67-.23,1.13v18.9h-2.86v-18.78Z"></path><path class="d" d="M91.08,161.39c-.54,0-.97-.16-1.29-.47-.32-.31-.48-.74-.48-1.28s.16-.97.48-1.29c.32-.32.75-.48,1.29-.48s.94.16,1.26.48c.32.32.48.75.48,1.29s-.16.97-.48,1.28c-.32.31-.74.47-1.26.47ZM93.79,181.04c-.92.2-1.69.22-2.29.06-.6-.16-1.06-.51-1.38-1.04-.32-.53-.48-1.25-.48-2.15v-13.27h2.86v13.27c0,.3.02.52.08.65.05.13.17.22.35.27s.47.08.87.08v2.14Z"></path><path class="d" d="M101.08,181.31c-2.05,0-3.58-.7-4.6-2.11-1.02-1.4-1.54-3.54-1.54-6.41s.5-4.99,1.49-6.37,2.51-2.06,4.56-2.06c1.28,0,2.43.23,3.43.68,1,.45,2.12,1.13,3.34,2.03l.18.09-.36,2.44c-1.24-.9-2.36-1.59-3.36-2.06-.99-.47-1.95-.71-2.87-.71-1.28,0-2.19.46-2.71,1.37-.52.91-.78,2.44-.78,4.59s.29,3.69.87,4.62c.58.93,1.5,1.4,2.77,1.4s2.35-.45,3.07-1.34,1.08-2.24,1.08-4.05v-6.29l.48-2.5h2.26v12.16h-2.77v-.81l1.84-2.56c0,2.97-.62,5.03-1.87,6.17s-2.75,1.71-4.51,1.71ZM101.02,188.83c-1.08,0-2.06-.13-2.93-.38-.87-.25-1.71-.64-2.51-1.16l.99-2.32c.78.42,1.52.72,2.2.9.68.18,1.42.27,2.23.27,1.14,0,2.06-.18,2.74-.54.68-.36,1.17-.93,1.47-1.71.3-.78.44-1.84.42-3.16l-.03-2.74.48-.24v-4.09h2.32v7.1c0,2.71-.61,4.73-1.82,6.06-1.21,1.33-3.07,2-5.55,2Z"></path><path class="d" d="M111.4,181.04v-22.78h2.83v22.78h-2.83ZM111.4,181.04v-16.4h2.26l.48,2.08-.84-.15c.9-.68,1.9-1.22,2.98-1.62,1.08-.4,2.19-.6,3.31-.6,1.69,0,2.93.51,3.75,1.52.81,1.01,1.22,2.56,1.22,4.65v7.43c0,.3.02.51.08.63.05.12.17.21.35.26.18.05.47.08.87.08v2.14c-.9.18-1.66.19-2.27.03-.61-.16-1.07-.5-1.38-1.02-.31-.52-.47-1.23-.47-2.14v-7.49c0-.9-.09-1.61-.26-2.14-.17-.52-.45-.9-.83-1.13-.38-.23-.91-.35-1.6-.35-.98,0-1.94.18-2.87.54s-1.84.84-2.72,1.44l.78-.99v13.24h-2.83Z"></path><path class="d" d="M131.35,181.31c-1.24,0-2.17-.36-2.77-1.07-.6-.71-.9-1.79-.9-3.24v-16.7h2.83v16.61c0,.5.04.89.12,1.16.08.27.22.46.41.57s.48.17.86.17c.26,0,.54-.03.84-.09s.61-.17.93-.33l.75,2.05c-.42.3-.89.52-1.41.66-.52.14-1.07.21-1.66.21ZM129.19,167.04v-2.41h4.24v2.41h-4.24Z"></path><path class="d" d="M137.24,173.6l.06-2.17h9.72l-1.29,1.32c.1-2.07-.16-3.6-.78-4.59s-1.66-1.49-3.1-1.49-2.53.5-3.15,1.49-.91,2.49-.89,4.5c0,2.23.36,3.81,1.08,4.74.72.93,1.86,1.4,3.4,1.4s3.01-.44,4.39-1.32l1.32,1.9c-1.77,1.26-3.75,1.9-5.96,1.9-2.41,0-4.19-.73-5.34-2.2s-1.73-3.55-1.73-6.26c0-1.83.26-3.37.77-4.62s1.28-2.21,2.3-2.86c1.02-.65,2.3-.98,3.82-.98s2.75.33,3.75.98c.99.65,1.74,1.6,2.23,2.84s.74,2.77.74,4.57v.84h-11.35Z"></path><path class="d" d="M150.69,181.04v-16.4h2.35l.48,2.65v13.75h-2.83ZM151.15,168.82c1.14-1.4,2.33-2.49,3.57-3.27,1.23-.77,2.58-1.17,4.05-1.19v2.65c-1.38.02-2.65.33-3.81.93-1.15.6-2.3,1.46-3.45,2.59l-.36-1.71Z"></path><path class="d" d="M171.21,176.31c0,1.52-.51,2.73-1.52,3.63-1.01.89-2.44,1.34-4.29,1.34-1.18,0-2.26-.2-3.22-.6-.96-.4-1.86-1.04-2.68-1.93l1.66-1.96c.7.74,1.39,1.26,2.08,1.55.68.29,1.46.44,2.32.44.92,0,1.67-.2,2.23-.59.56-.39.84-.97.84-1.73,0-.66-.21-1.17-.62-1.52-.41-.35-1.05-.58-1.91-.68l-1.69-.27c-1.38-.22-2.48-.72-3.28-1.5-.8-.78-1.2-1.82-1.2-3.1,0-1.56.53-2.8,1.58-3.7,1.05-.9,2.46-1.35,4.23-1.35.98,0,1.88.15,2.69.44s1.55.75,2.21,1.37l-1.26,2.02c-.56-.46-1.13-.8-1.71-1.02-.58-.22-1.22-.33-1.93-.33-.92,0-1.68.2-2.27.59-.59.39-.89.96-.89,1.7,0,.7.23,1.24.68,1.62.45.38,1.08.64,1.88.78l1.78.3c1.45.24,2.52.72,3.24,1.43s1.07,1.74,1.07,3.08Z"></path></g></g><g><path class="f" d="M72.77,250.63l3.44-9.74h1.42l3.42,9.74h-1.51l-2.77-8.34h.28l-2.78,8.34h-1.51ZM74.93,247.88l.41-1.23h3.2l.41,1.23h-4.02Z"></path><path class="f" d="M83.48,250.62c-.61.13-1.07.08-1.39-.13s-.48-.63-.48-1.24v-8.36h1.34v8.35c0,.11.01.19.03.25.02.05.07.09.14.11.07.02.19.03.35.03v1Z"></path><path class="f" d="M84.37,250.63v-9.74h1.43v9.74h-1.43ZM85.31,248.57l-.09-1.84,3.06-3.15h1.83l-4.8,4.99ZM88.69,250.63l-2.36-3.98,1.13-.78,2.79,4.76h-1.56Z"></path><path class="f" d="M90.94,250.63v-9.74h1.43v9.74h-1.43ZM90.94,250.63v-7.05h1.06l.29.88h-.45c.4-.31.83-.55,1.29-.73.46-.18.93-.27,1.41-.27.72,0,1.25.22,1.59.66s.52,1.12.52,2.03v3.09c0,.12.01.21.04.26.03.05.07.09.15.1.07.02.19.03.36.03v.99c-.42.09-.78.11-1.08.04-.3-.06-.53-.21-.68-.45-.15-.24-.23-.55-.23-.95v-3.14c0-.37-.03-.65-.09-.86s-.16-.35-.31-.44-.36-.13-.62-.13c-.38,0-.75.07-1.13.22-.38.15-.76.35-1.15.6l.45-.54v5.67h-1.43Z"></path><path class="f" d="M100.6,250.74c-.67,0-1.23-.13-1.66-.39s-.76-.66-.97-1.19c-.21-.53-.32-1.22-.32-2.06s.11-1.5.32-2.04c.21-.54.54-.94.97-1.2.44-.26.99-.39,1.66-.39s1.23.13,1.66.39c.43.26.75.66.96,1.2.21.54.31,1.22.31,2.04s-.1,1.52-.31,2.06c-.21.53-.53.93-.96,1.19-.43.26-.98.39-1.66.39ZM100.6,249.52c.35,0,.63-.08.85-.25.22-.17.38-.42.47-.78.1-.35.15-.81.15-1.4s-.05-1.02-.15-1.38c-.1-.35-.26-.62-.47-.78-.22-.17-.5-.25-.85-.25s-.65.08-.86.25c-.22.17-.38.43-.48.78s-.15.81-.15,1.38.05,1.04.15,1.39.26.61.48.78c.22.17.51.25.86.25Z"></path><path class="f" d="M105.89,249.2l-.37,1.43h-1.02v-9.74h1.43v3.48l-.19,1.1v1.91l.15,1.82ZM107.74,250.75c-.48,0-.92-.1-1.32-.29s-.73-.55-.99-1.08c-.26-.52-.39-1.22-.39-2.11l.82,1.1v.37h-1.36v-5.16h1.06l.31,1.18v2.51c0,.77.13,1.34.4,1.71.27.37.67.56,1.2.56.49,0,.86-.19,1.08-.57.23-.38.34-1,.34-1.86s-.11-1.49-.32-1.86c-.21-.37-.57-.55-1.06-.55-.38,0-.78.1-1.2.31s-.91.53-1.46.97l-.18-1.18s.02-.03.04-.04.04-.02.04-.03c.56-.43,1.07-.75,1.51-.95.44-.21.94-.31,1.49-.31.88,0,1.53.3,1.95.89.42.59.63,1.51.63,2.75s-.21,2.16-.64,2.75-1.08.9-1.96.9Z"></path><path class="f" d="M110.89,248.64c0-.73.2-1.28.6-1.63.4-.35,1.01-.52,1.84-.52h1.67v-.7c0-.29-.04-.51-.13-.67-.09-.16-.24-.27-.44-.35-.21-.07-.49-.11-.85-.11-.39,0-.72.06-.98.17-.26.12-.51.31-.74.58l-.81-.73c.32-.44.68-.74,1.06-.93.38-.18.91-.28,1.59-.28.94,0,1.62.18,2.03.54.41.36.62.95.62,1.77v3.46c0,.11.01.19.04.25.03.05.07.09.15.11.07.02.19.03.36.03v1c-.4.08-.73.1-1,.04-.27-.06-.47-.18-.6-.37s-.21-.43-.23-.72l.63-.26c-.23.4-.48.7-.76.91-.28.21-.56.34-.83.41s-.57.11-.86.12h-.04c-.8,0-1.39-.18-1.75-.54-.37-.36-.55-.89-.55-1.57ZM112.28,248.62c0,.37.09.64.28.81.18.17.48.26.9.26.45,0,.82-.11,1.11-.34.29-.23.43-.65.43-1.26v-.53h-1.54c-.42,0-.72.08-.9.25-.18.17-.28.44-.28.81Z"></path><path class="f" d="M117.63,250.63v-7.05h1.13l.31,1.31v5.75h-1.43ZM117.8,245.56c.49-.65,1.01-1.16,1.55-1.53s1.15-.56,1.84-.57v1.33c-.67,0-1.25.15-1.75.42-.5.27-.99.66-1.46,1.15l-.18-.81Z"></path></g><g><path class="g" d="M35.94,266.46h-.97v-6.39h.97v6.39ZM35.73,264.59l-.02-1.33,2.67-3.19h1.22l-3.87,4.52ZM37.14,262.72l2.48,3.74h-1.1l-2.08-3.14.71-.6Z"></path><path class="g" d="M40.59,261.01c-.17,0-.3-.05-.4-.16-.1-.1-.15-.24-.15-.4s.05-.3.15-.4c.1-.1.23-.15.4-.15s.3.05.4.15.15.23.15.4-.05.3-.15.4-.24.16-.4.16ZM41.42,266.45c-.27.06-.51.06-.7.02-.19-.04-.34-.14-.44-.29-.1-.15-.15-.36-.15-.62v-3.72h.93v3.71c0,.07,0,.13.03.16s.05.06.1.07c.05.01.13.02.24.02v.65Z"></path><path class="g" d="M42.05,266.46v-4.62h.7l.19.58h-.29c.26-.2.55-.36.85-.48.3-.12.61-.18.92-.18.47,0,.82.14,1.04.43s.34.73.34,1.33v2.02c0,.08,0,.13.03.17.02.03.05.06.1.07.05.01.13.02.24.02v.65c-.27.06-.51.07-.71.03-.2-.04-.34-.14-.44-.29-.1-.15-.15-.36-.15-.62v-2.06c0-.24-.02-.43-.06-.56-.04-.13-.11-.23-.21-.29-.1-.06-.23-.09-.41-.09-.25,0-.49.05-.74.14-.25.1-.5.23-.75.39l.29-.35v3.72h-.94Z"></path><path class="g" d="M48.23,266.53c-.58,0-1-.2-1.28-.59-.28-.39-.42-.99-.42-1.8s.14-1.41.42-1.8.7-.58,1.28-.58c.36,0,.69.07.97.21.29.14.62.35,1,.63l.05.03-.12.77c-.36-.29-.68-.5-.96-.64-.28-.13-.54-.2-.79-.2-.32,0-.56.12-.7.36-.14.24-.21.65-.21,1.22s.07.97.22,1.22c.15.25.38.37.71.37.35,0,.61-.12.78-.37.18-.24.26-.62.26-1.12v-1.64l.2-.77h.7v3.38h-.89v-.24l.54-.72c0,.85-.17,1.44-.51,1.78-.34.34-.76.51-1.26.51ZM48.27,268.65c-.3,0-.58-.04-.84-.11-.26-.08-.5-.19-.73-.35l.32-.73c.22.11.42.19.62.24.19.05.4.07.61.07.3,0,.53-.05.7-.14.17-.09.29-.24.37-.44s.12-.47.12-.81v-.76s.11-.13.11-.13v-1.4h.81v2.3c0,.75-.18,1.32-.53,1.7s-.87.57-1.56.57Z"></path><path class="g" d="M52.74,266.53c-.58,0-1-.2-1.28-.59-.28-.39-.42-.99-.42-1.8s.14-1.41.42-1.8.7-.58,1.28-.58c.36,0,.68.07.97.21.29.14.62.35.99.63,0,0,.02.01.03.02s.02.01.03.03l-.12.77c-.36-.29-.68-.5-.96-.64-.28-.13-.54-.2-.79-.2-.32,0-.56.12-.7.36-.14.24-.21.65-.21,1.22s.07.97.22,1.22c.15.25.38.37.71.37.35,0,.61-.12.78-.37.18-.24.26-.62.26-1.12v-1.64l.2-.77h.53v3.38h-.72v-.24l.54-.72c0,.85-.17,1.44-.51,1.78-.34.34-.76.51-1.26.51ZM55.21,266.45c-.4.08-.71.05-.92-.09s-.32-.41-.32-.81v-5.48h.88v5.47c0,.07,0,.13.03.16.02.04.05.06.1.07.05.01.12.02.23.02v.65Z"></path><path class="g" d="M57.53,266.53c-.44,0-.81-.09-1.09-.26-.29-.17-.5-.43-.64-.78-.14-.35-.21-.8-.21-1.35s.07-.98.21-1.34c.14-.36.35-.62.64-.79s.65-.26,1.09-.26.8.08,1.09.26c.28.17.49.43.63.79s.21.8.21,1.34-.07,1-.21,1.35-.35.61-.63.78c-.28.17-.64.26-1.09.26ZM57.53,265.73c.23,0,.42-.05.56-.16.14-.11.25-.28.31-.51s.1-.54.1-.92-.03-.67-.1-.9-.17-.4-.31-.51c-.14-.11-.33-.16-.56-.16s-.42.05-.57.16c-.14.11-.25.28-.31.51s-.1.53-.1.9.03.68.1.91c.07.23.17.4.31.51.14.11.33.16.57.16Z"></path><path class="g" d="M60.15,266.46v-4.62h.7l.18.59-.29-.03c.25-.2.51-.36.8-.47.29-.11.58-.17.9-.17.33,0,.6.07.81.21s.36.36.46.65l-.34-.1c.25-.24.52-.42.83-.56.3-.14.63-.21.97-.21.48,0,.83.14,1.06.43s.34.73.34,1.33v2.03c0,.07,0,.13.03.16s.05.06.1.07c.05.01.13.02.24.02v.65c-.28.06-.52.07-.71.03-.19-.04-.34-.14-.44-.29-.1-.15-.15-.36-.15-.61v-2.06c0-.24-.02-.42-.07-.56s-.12-.24-.22-.3c-.1-.06-.24-.09-.41-.09-.25,0-.49.05-.72.16-.23.1-.46.24-.69.42l.19-.43c.07.23.1.5.1.82v2.94h-.87v-2.96c0-.24-.02-.42-.08-.56-.05-.14-.13-.24-.24-.3s-.25-.09-.43-.09c-.24,0-.47.05-.71.14-.24.09-.49.22-.74.38l.3-.32v3.71h-.9Z"></path><path class="g" d="M70.89,266.53c-.44,0-.81-.09-1.09-.26-.29-.17-.5-.43-.64-.78-.14-.35-.21-.8-.21-1.35s.07-.98.21-1.34c.14-.36.35-.62.64-.79s.65-.26,1.09-.26.8.08,1.09.26c.28.17.49.43.63.79s.21.8.21,1.34-.07,1-.21,1.35-.35.61-.63.78c-.28.17-.64.26-1.09.26ZM70.89,265.73c.23,0,.42-.05.56-.16.14-.11.25-.28.31-.51s.1-.54.1-.92-.03-.67-.1-.9-.17-.4-.31-.51c-.14-.11-.33-.16-.56-.16s-.42.05-.57.16c-.14.11-.25.28-.31.51s-.1.53-.1.9.03.68.1.91c.07.23.17.4.31.51.14.11.33.16.57.16Z"></path><path class="g" d="M73.22,262.62v-.79h2.09v.79h-2.09ZM73.57,261.24c0-.41.09-.71.26-.92.18-.2.45-.3.83-.3.17,0,.33.02.47.06s.27.1.39.18l-.24.65c-.16-.07-.3-.1-.45-.1-.15,0-.24.04-.28.11-.04.07-.06.17-.06.29v5.25h-.93v-5.22Z"></path><path class="g" d="M79.41,266.53c-.49,0-.92-.08-1.29-.23-.37-.15-.7-.39-1.01-.7l.53-.66c.26.24.52.42.78.53.26.11.55.17.87.17.46,0,.79-.08,1-.23s.31-.39.31-.72c0-.21-.04-.37-.11-.5-.07-.13-.17-.22-.3-.28s-.3-.11-.53-.14l-.75-.11c-.4-.06-.72-.16-.97-.31-.25-.14-.43-.33-.55-.58-.12-.24-.18-.54-.18-.9,0-.61.17-1.07.52-1.39s.85-.47,1.52-.47c.43,0,.82.07,1.17.21.35.14.65.33.89.58l-.57.6c-.21-.16-.42-.28-.63-.36s-.47-.12-.77-.12c-.41,0-.71.08-.9.23-.19.15-.29.4-.29.73,0,.21.04.38.11.49.07.12.17.2.31.26.13.06.32.1.55.14l.68.1c.4.06.73.16.98.29.25.13.44.32.57.55.13.23.19.54.19.92,0,.63-.18,1.1-.54,1.42-.36.32-.89.48-1.6.48Z"></path><path class="g" d="M82.01,265.15c0-.48.13-.84.39-1.07.26-.23.66-.34,1.21-.34h1.09v-.46c0-.19-.03-.34-.09-.44s-.16-.18-.29-.23c-.13-.05-.32-.07-.55-.07-.26,0-.47.04-.64.11-.17.08-.33.2-.48.38l-.53-.48c.21-.29.44-.49.7-.61s.6-.18,1.04-.18c.62,0,1.06.12,1.33.35.27.24.41.62.41,1.16v2.27c0,.07,0,.13.03.16s.05.06.1.07c.05.01.13.02.24.02v.65c-.26.06-.48.06-.66.03-.17-.04-.3-.12-.39-.24-.09-.12-.14-.28-.15-.47l.41-.17c-.15.26-.32.46-.5.6-.18.13-.36.22-.55.27s-.37.07-.57.08h-.03c-.53,0-.91-.12-1.15-.36-.24-.24-.36-.58-.36-1.03ZM82.91,265.14c0,.24.06.42.18.53s.32.17.59.17c.3,0,.54-.07.73-.22s.28-.42.28-.83v-.34h-1.01c-.27,0-.47.05-.59.16-.12.11-.18.29-.18.53Z"></path><path class="g" d="M86.38,264.76v-2.93h.94v2.95c0,.24.02.43.06.57.04.14.11.24.21.29.1.06.23.09.4.09.22,0,.43-.03.62-.1.2-.06.39-.15.58-.26v-3.54h.94v3.72c0,.07,0,.13.02.16s.04.06.09.07c.05.01.13.02.24.02v.65c-.22.03-.41.04-.57.03-.15-.02-.28-.07-.37-.15-.1-.08-.16-.2-.2-.36-.52.38-1.05.56-1.58.56-.47,0-.82-.14-1.05-.43s-.34-.73-.34-1.33Z"></path><path class="g" d="M92.58,266.53c-.58,0-1-.2-1.28-.59-.28-.39-.42-.99-.42-1.8s.14-1.41.42-1.8.7-.58,1.28-.58c.36,0,.68.07.97.21.29.14.62.35.99.63,0,0,.02.01.03.02s.02.01.03.03l-.12.77c-.36-.29-.68-.5-.96-.64-.28-.13-.54-.2-.79-.2-.32,0-.56.12-.7.36-.14.24-.21.65-.21,1.22s.07.97.22,1.22c.15.25.38.37.71.37.35,0,.61-.12.78-.37.18-.24.26-.62.26-1.12v-1.64l.2-.77h.53v3.38h-.72v-.24l.54-.72c0,.85-.17,1.44-.51,1.78-.34.34-.76.51-1.26.51ZM95.06,266.45c-.4.08-.71.05-.92-.09s-.32-.41-.32-.81v-5.48h.88v5.47c0,.07,0,.13.03.16.02.04.05.06.1.07.05.01.12.02.23.02v.65Z"></path><path class="g" d="M96.12,261.01c-.17,0-.3-.05-.4-.16-.1-.1-.15-.24-.15-.4s.05-.3.15-.4c.1-.1.23-.15.4-.15s.3.05.4.15.15.23.15.4-.05.3-.15.4-.24.16-.4.16ZM96.95,266.45c-.27.06-.51.06-.7.02-.19-.04-.34-.14-.44-.29-.1-.15-.15-.36-.15-.62v-3.72h.93v3.71c0,.07,0,.13.03.16s.05.06.1.07c.05.01.13.02.24.02v.65Z"></path><path class="g" d="M98.77,266.46l2.26-6.39h.93l2.24,6.39h-.99l-1.81-5.46h.18l-1.82,5.46h-.99ZM100.19,264.65l.27-.81h2.1l.27.81h-2.64Z"></path><path class="g" d="M104.71,266.46v-4.62h.74l.2.86v3.77h-.94ZM104.82,263.14c.33-.42.66-.76,1.02-1s.76-.37,1.21-.37v.87c-.44,0-.82.1-1.15.28-.33.18-.65.43-.96.76l-.12-.53Z"></path><path class="g" d="M107.36,265.15c0-.48.13-.84.39-1.07.26-.23.66-.34,1.21-.34h1.09v-.46c0-.19-.03-.34-.09-.44s-.16-.18-.29-.23c-.13-.05-.32-.07-.55-.07-.26,0-.47.04-.64.11-.17.08-.33.2-.48.38l-.53-.48c.21-.29.44-.49.7-.61s.6-.18,1.04-.18c.62,0,1.06.12,1.33.35.27.24.41.62.41,1.16v2.27c0,.07,0,.13.03.16s.05.06.1.07c.05.01.13.02.24.02v.65c-.26.06-.48.06-.66.03-.17-.04-.3-.12-.39-.24-.09-.12-.14-.28-.15-.47l.41-.17c-.15.26-.32.46-.5.6-.18.13-.36.22-.55.27s-.37.07-.57.08h-.03c-.53,0-.91-.12-1.15-.36-.24-.24-.36-.58-.36-1.03ZM108.27,265.14c0,.24.06.42.18.53s.32.17.59.17c.3,0,.54-.07.73-.22s.28-.42.28-.83v-.34h-1.01c-.27,0-.47.05-.59.16-.12.11-.18.29-.18.53Z"></path><path class="g" d="M112.78,265.52l-.24.94h-.67v-6.39h.94v2.28l-.13.72v1.25l.1,1.19ZM113.99,266.53c-.31,0-.6-.06-.86-.19-.26-.13-.48-.36-.65-.71-.17-.34-.26-.8-.26-1.39l.54.72v.24h-.89v-3.38h.7l.2.77v1.64c0,.5.09.88.26,1.12.18.24.44.37.79.37.32,0,.56-.12.71-.37s.22-.66.22-1.22-.07-.98-.21-1.22c-.14-.24-.37-.36-.7-.36-.25,0-.51.07-.79.2-.28.13-.6.35-.96.64l-.12-.77s.02-.02.03-.03c.01,0,.02-.01.03-.02.37-.28.7-.49.99-.63.29-.14.62-.21.97-.21.58,0,1,.19,1.28.58.28.39.42.99.42,1.8s-.14,1.41-.42,1.8c-.28.39-.71.59-1.28.59Z"></path><path class="g" d="M116.83,261.01c-.17,0-.3-.05-.4-.16-.1-.1-.15-.24-.15-.4s.05-.3.15-.4c.1-.1.23-.15.4-.15s.3.05.4.15.15.23.15.4-.05.3-.15.4-.24.16-.4.16ZM117.66,266.45c-.27.06-.51.06-.7.02-.19-.04-.34-.14-.44-.29-.1-.15-.15-.36-.15-.62v-3.72h.93v3.71c0,.07,0,.13.03.16s.05.06.1.07c.05.01.13.02.24.02v.65Z"></path><path class="g" d="M118.05,265.15c0-.48.13-.84.39-1.07.26-.23.66-.34,1.21-.34h1.09v-.46c0-.19-.03-.34-.09-.44s-.16-.18-.29-.23c-.13-.05-.32-.07-.55-.07-.26,0-.47.04-.64.11-.17.08-.33.2-.48.38l-.53-.48c.21-.29.44-.49.7-.61s.6-.18,1.04-.18c.62,0,1.06.12,1.33.35.27.24.41.62.41,1.16v2.27c0,.07,0,.13.03.16s.05.06.1.07c.05.01.13.02.24.02v.65c-.26.06-.48.06-.66.03-.17-.04-.3-.12-.39-.24-.09-.12-.14-.28-.15-.47l.41-.17c-.15.26-.32.46-.5.6-.18.13-.36.22-.55.27s-.37.07-.57.08h-.03c-.53,0-.91-.12-1.15-.36-.24-.24-.36-.58-.36-1.03ZM118.96,265.14c0,.24.06.42.18.53s.32.17.59.17c.3,0,.54-.07.73-.22s.28-.42.28-.83v-.34h-1.01c-.27,0-.47.05-.59.16-.12.11-.18.29-.18.53Z"></path></g><g><path class="f" d="M38.89,247.93c.34-.33.7-.69,1.06-1.06.34-.35.64-.69.89-1,.52-.62.92-1.25,1.19-1.89.27-.64.41-1.3.41-1.96,0-1.05-.35-1.89-1.05-2.5-.69-.6-1.67-.9-2.9-.9-1.09,0-2.2.26-3.3.76l-.06.03.54,1.47.07-.03c.4-.19.83-.34,1.29-.44.46-.1.91-.15,1.35-.15.72,0,1.26.17,1.61.49.35.32.52.8.52,1.41,0,.49-.1.97-.31,1.43-.21.46-.54.96-.98,1.5-.23.3-.56.65-.96,1.06-.41.41-.85.85-1.32,1.31-.31.29-.63.59-.98.9-.34.31-.71.64-1.1.99l-.02.02v1.21h7.7v-1.63h-4.71c.31-.29.67-.63,1.07-1.02Z"></path><path class="f" d="M48.24,238.59c-1.42,0-2.54.53-3.31,1.57-.77,1.04-1.16,2.58-1.16,4.59s.39,3.54,1.15,4.52c.77.98,1.89,1.48,3.32,1.48s2.55-.5,3.31-1.48c.76-.98,1.14-2.5,1.14-4.52s-.39-3.54-1.15-4.58c-.77-1.05-1.88-1.58-3.29-1.58ZM48.24,249.12c-.83,0-1.45-.35-1.87-1.06-.43-.71-.64-1.83-.64-3.32s.22-2.62.66-3.4c.44-.77,1.04-1.15,1.86-1.15s1.4.39,1.84,1.17c.45.79.68,1.93.68,3.38s-.22,2.61-.66,3.32c-.43.7-1.06,1.06-1.86,1.06Z"></path><path class="f" d="M57.59,247.93c.34-.33.7-.69,1.06-1.06.34-.35.64-.69.89-1,.52-.62.92-1.25,1.19-1.89.27-.64.41-1.3.41-1.96,0-1.05-.35-1.89-1.05-2.5-.69-.6-1.67-.9-2.9-.9-1.09,0-2.2.26-3.3.76l-.06.03.54,1.47.07-.03c.4-.19.83-.34,1.29-.44.46-.1.91-.15,1.35-.15.72,0,1.26.17,1.61.49.35.32.52.8.52,1.41,0,.49-.1.97-.31,1.43-.21.46-.54.96-.98,1.5-.23.3-.56.65-.96,1.06-.41.41-.85.85-1.32,1.31-.31.29-.63.59-.98.9-.34.31-.71.64-1.1.99l-.02.02v1.21h7.7v-1.63h-4.71c.31-.29.67-.63,1.07-1.02Z"></path><path class="f" d="M69.73,244.19c-.61-.61-1.49-.92-2.64-.92-.52,0-1.03.06-1.52.17-.44.1-.81.24-1.11.41.03-.82.12-1.48.28-1.97.17-.5.45-.87.84-1.1.39-.23.94-.35,1.63-.35.93,0,1.74.18,2.4.55l.07.04.72-1.53-.06-.03c-.51-.25-1.02-.44-1.52-.56-.5-.12-1.06-.19-1.64-.19-1.11,0-2.02.23-2.71.68-.69.45-1.21,1.16-1.54,2.11-.32.94-.49,2.17-.49,3.67,0,1.3.13,2.36.37,3.17.25.82.67,1.44,1.26,1.83.58.4,1.38.6,2.37.6,1.34,0,2.38-.34,3.1-1,.73-.67,1.09-1.65,1.09-2.92,0-1.14-.31-2.03-.91-2.65ZM68.13,248.54c-.35.33-.89.5-1.61.5-.58,0-1.02-.11-1.32-.33-.3-.22-.51-.58-.62-1.05-.12-.48-.17-1.17-.18-2.03.29-.19.64-.35,1.05-.48.43-.13.87-.2,1.31-.2.63,0,1.11.16,1.42.48.31.32.47.83.47,1.53s-.18,1.25-.52,1.58Z"></path></g></svg>