<svg xmlns="http://www.w3.org/2000/svg" width="298" height="365" viewBox="0 0 298 365" fill="none"><path d="M14.9749 325.235C15.4096 324.812 15.8681 324.354 16.3266 323.883C16.7673 323.431 17.1483 323.002 17.4639 322.609C18.1249 321.817 18.637 321.001 18.9823 320.198C19.3336 319.382 19.5123 318.542 19.5123 317.691C19.5123 316.345 19.0597 315.267 18.1725 314.499C17.2853 313.731 16.0348 313.344 14.4569 313.344C13.0576 313.344 11.6404 313.671 10.2411 314.315L10.1637 314.35L10.8544 316.238L10.9437 316.196C11.4499 315.952 12.0036 315.762 12.5872 315.631C13.1767 315.5 13.7543 315.434 14.308 315.434C15.225 315.434 15.9158 315.642 16.3623 316.059C16.8089 316.47 17.0293 317.083 17.0293 317.863C17.0293 318.495 16.8983 319.108 16.6303 319.686C16.3683 320.275 15.9455 320.918 15.3739 321.609C15.0702 321.99 14.6594 322.442 14.1413 322.961C13.6173 323.485 13.0516 324.044 12.4502 324.634C12.0572 325.003 11.6404 325.384 11.1998 325.783C10.7591 326.182 10.2887 326.605 9.78856 327.051L9.75879 327.081V328.629H19.6135V326.539H13.5995C13.9984 326.17 14.4569 325.735 14.969 325.235H14.9749Z" fill="#EF4237"></path><path d="M26.9316 313.284C25.1095 313.284 23.6864 313.957 22.692 315.291C21.7035 316.613 21.2093 318.59 21.2093 321.156C21.2093 323.723 21.7095 325.682 22.686 326.932C23.6685 328.189 25.0976 328.826 26.9316 328.826C28.7656 328.826 30.1887 328.189 31.1593 326.926C32.1239 325.676 32.6182 323.729 32.6182 321.15C32.6182 318.572 32.1239 316.625 31.1415 315.297C30.153 313.957 28.7418 313.284 26.9316 313.284ZM29.3075 325.402C28.7537 326.301 27.9558 326.759 26.9316 326.759C25.9074 326.759 25.0857 326.313 24.5379 325.402C23.9901 324.491 23.7162 323.062 23.7162 321.156C23.7162 319.251 24.002 317.798 24.5617 316.809C25.1214 315.821 25.8955 315.339 26.9376 315.339C27.9796 315.339 28.7239 315.839 29.2955 316.827C29.8672 317.834 30.159 319.293 30.159 321.156C30.159 323.02 29.8731 324.491 29.3194 325.402H29.3075Z" fill="#EF4237"></path><path d="M38.8942 325.235C39.3289 324.812 39.7874 324.354 40.2459 323.883C40.6865 323.431 41.0676 323.002 41.3832 322.609C42.0442 321.817 42.5563 321.001 42.9016 320.198C43.2529 319.382 43.4316 318.542 43.4316 317.691C43.4316 316.345 42.979 315.267 42.0918 314.499C41.2046 313.731 39.9541 313.344 38.3821 313.344C36.9828 313.344 35.5657 313.671 34.1663 314.315L34.0889 314.35L34.7797 316.238L34.869 316.196C35.3751 315.952 35.9289 315.762 36.5184 315.631C37.1079 315.5 37.6855 315.434 38.2452 315.434C39.1622 315.434 39.8529 315.642 40.2995 316.059C40.7461 316.47 40.9724 317.083 40.9724 317.863C40.9724 318.495 40.8414 319.108 40.5734 319.686C40.3114 320.275 39.8886 320.918 39.317 321.609C39.0193 321.99 38.6025 322.442 38.0844 322.961C37.5604 323.485 36.9947 324.044 36.3933 324.634C36.0003 325.003 35.5835 325.384 35.1429 325.783C34.7022 326.182 34.2318 326.605 33.7317 327.051L33.7019 327.081V328.629H43.5566V326.539H37.5306C37.9296 326.17 38.3881 325.735 38.9002 325.235H38.8942Z" fill="#EF4237"></path><path d="M51.0474 319.275C50.3805 319.275 49.7255 319.346 49.1003 319.489C48.5346 319.62 48.0582 319.793 47.6771 320.007C47.7129 318.953 47.832 318.108 48.0404 317.488C48.2547 316.851 48.6179 316.375 49.1122 316.077C49.6124 315.779 50.315 315.625 51.2022 315.625C52.3931 315.625 53.4232 315.857 54.2747 316.321L54.3581 316.369L55.2811 314.41L55.2036 314.368C54.5606 314.053 53.9056 313.814 53.2684 313.654C52.6253 313.493 51.9168 313.415 51.1665 313.415C49.7493 313.415 48.5822 313.707 47.701 314.285C46.8137 314.868 46.1528 315.773 45.736 316.982C45.3191 318.185 45.1107 319.763 45.1107 321.68C45.1107 323.336 45.2715 324.705 45.5871 325.735C45.9086 326.783 46.4505 327.569 47.2008 328.075C47.9451 328.582 48.9633 328.838 50.2257 328.838C51.9346 328.838 53.2744 328.403 54.1973 327.551C55.1262 326.7 55.5966 325.444 55.5966 323.824C55.5966 322.359 55.2036 321.222 54.4296 320.442C53.6555 319.662 52.5182 319.263 51.0533 319.263L51.0474 319.275ZM52.3693 326.015C51.9227 326.444 51.232 326.658 50.315 326.658C49.5766 326.658 49.0109 326.515 48.6239 326.23C48.2428 325.95 47.9749 325.497 47.832 324.884C47.6831 324.265 47.6057 323.389 47.6057 322.282C47.9689 322.038 48.4274 321.829 48.9514 321.668C49.4992 321.502 50.0589 321.418 50.6306 321.418C51.4404 321.418 52.0537 321.627 52.4467 322.032C52.8397 322.442 53.0422 323.097 53.0422 323.991C53.0422 324.884 52.8159 325.586 52.3693 326.015Z" fill="#EF4237"></path><path d="M102.703 328.104C102.375 328.104 102.113 328.199 101.917 328.39C101.72 328.58 101.619 328.842 101.619 329.182C101.619 329.497 101.72 329.759 101.917 329.962C102.113 330.164 102.375 330.265 102.703 330.265C103.03 330.265 103.292 330.164 103.489 329.962C103.685 329.759 103.787 329.497 103.787 329.182C103.787 328.842 103.691 328.58 103.489 328.39C103.292 328.199 103.03 328.104 102.703 328.104Z" fill="#EF4237"></path><path d="M110.432 315.629C110.759 315.629 111.021 315.528 111.218 315.325C111.414 315.123 111.51 314.861 111.51 314.545C111.51 314.206 111.408 313.944 111.218 313.753C111.021 313.563 110.759 313.468 110.432 313.468C110.104 313.468 109.842 313.563 109.646 313.753C109.449 313.944 109.354 314.206 109.354 314.545C109.354 314.861 109.455 315.123 109.646 315.325C109.842 315.528 110.104 315.629 110.432 315.629Z" fill="#EF4237"></path><path d="M118.244 322.965C118.244 323.304 118.214 323.566 118.161 323.745C118.107 323.924 118.012 324.049 117.875 324.12C117.738 324.192 117.547 324.227 117.291 324.227H115.064V322.882C115.064 321.363 114.731 320.238 114.064 319.511C113.397 318.779 112.367 318.416 110.968 318.416H108.199V320.107H110.968C111.801 320.107 112.391 320.321 112.736 320.744C113.087 321.173 113.26 321.887 113.26 322.888V324.233H107.097C106.585 324.233 106.156 324.168 105.811 324.031C105.68 323.983 105.549 323.912 105.418 323.828C105.454 323.566 105.478 323.287 105.478 322.971V318.422H103.661V322.971C103.661 323.31 103.632 323.572 103.578 323.751C103.525 323.93 103.429 324.055 103.292 324.126C103.155 324.198 102.959 324.233 102.709 324.233H66.0587C65.7372 324.233 65.4454 324.138 65.1715 323.965V318.416H63.3732V325.406C63.3732 326.115 63.2899 326.681 63.1291 327.103C62.9683 327.52 62.7004 327.83 62.3371 328.026C61.9739 328.223 61.4678 328.324 60.8247 328.324V330.093C62.3312 330.051 63.4328 329.652 64.1295 328.896C64.7606 328.217 65.1 327.199 65.1655 325.859C65.4156 325.972 65.7015 326.032 66.0289 326.032H102.709C103.697 326.032 104.406 325.793 104.835 325.323C105.132 325.549 105.424 325.722 105.704 325.829C106.061 325.966 106.514 326.032 107.062 326.032H117.279C118.274 326.032 118.982 325.793 119.405 325.317C119.828 324.841 120.042 324.061 120.042 322.965V313.563H118.226V322.959L118.244 322.965Z" fill="#EF4237"></path><path d="M123.782 313.563H121.984V326.026H123.782V313.563Z" fill="#EF4237"></path><path d="M13.5935 339.096C13.8078 339.096 13.9865 339.03 14.1175 338.893C14.2485 338.756 14.314 338.584 14.314 338.375C14.314 338.149 14.2485 337.97 14.1175 337.845C13.9865 337.72 13.8078 337.655 13.5935 337.655C13.3791 337.655 13.2005 337.72 13.0695 337.845C12.9385 337.97 12.873 338.149 12.873 338.375C12.873 338.584 12.9385 338.756 13.0695 338.893C13.2005 339.03 13.3732 339.096 13.5935 339.096Z" fill="#08A650"></path><path d="M11.819 339.096C12.0394 339.096 12.212 339.03 12.343 338.893C12.474 338.756 12.5395 338.584 12.5395 338.375C12.5395 338.149 12.474 337.97 12.343 337.845C12.212 337.72 12.0394 337.655 11.819 337.655C11.5987 337.655 11.426 337.72 11.295 337.845C11.164 337.97 11.0985 338.149 11.0985 338.375C11.0985 338.584 11.164 338.756 11.295 338.893C11.426 339.03 11.5987 339.096 11.819 339.096Z" fill="#08A650"></path><path d="M16.2254 347.414C16.0051 347.414 15.8324 347.48 15.7014 347.605C15.5704 347.73 15.5049 347.908 15.5049 348.135C15.5049 348.343 15.5704 348.516 15.7014 348.653C15.8324 348.79 16.0051 348.855 16.2254 348.855C16.4457 348.855 16.6184 348.79 16.7494 348.653C16.8804 348.516 16.9459 348.343 16.9459 348.135C16.9459 347.908 16.8804 347.73 16.7494 347.605C16.6184 347.48 16.4457 347.414 16.2254 347.414Z" fill="#08A650"></path><path d="M17.9939 343.984C17.9939 344.211 17.976 344.383 17.9403 344.502C17.9046 344.622 17.8391 344.705 17.7497 344.753C17.6604 344.8 17.5294 344.824 17.3627 344.824H15.0642V343.383C15.0642 342.478 14.8677 341.811 14.4807 341.376C14.0877 340.942 13.4863 340.727 12.6765 340.727C11.8667 340.727 11.2534 340.948 10.8604 341.376C10.4614 341.811 10.2649 342.478 10.2649 343.383C10.2649 344.288 10.4614 344.943 10.8604 345.372C11.2593 345.807 11.8607 346.021 12.6765 346.021H17.3686C18.0296 346.021 18.506 345.86 18.7858 345.545C19.0716 345.229 19.2086 344.705 19.2086 343.978V340.942H17.9998V343.978L17.9939 343.984ZM11.7416 344.497C11.563 344.276 11.4677 343.907 11.4677 343.383C11.4677 342.829 11.563 342.436 11.7476 342.204C11.9322 341.972 12.2418 341.853 12.6705 341.853C13.0993 341.853 13.4029 341.972 13.5816 342.204C13.7602 342.436 13.8495 342.829 13.8495 343.383V344.824H12.6705C12.2359 344.824 11.9262 344.717 11.7416 344.497Z" fill="#08A650"></path><path d="M18.0058 347.414C17.7855 347.414 17.6128 347.48 17.4818 347.605C17.3508 347.73 17.2853 347.908 17.2853 348.135C17.2853 348.343 17.3508 348.516 17.4818 348.653C17.6128 348.79 17.7855 348.855 18.0058 348.855C18.2261 348.855 18.3988 348.79 18.5298 348.653C18.6608 348.516 18.7263 348.343 18.7263 348.135C18.7263 347.908 18.6608 347.73 18.5298 347.605C18.3988 347.48 18.2261 347.414 18.0058 347.414Z" fill="#08A650"></path><path d="M23.7281 341.478L23.5554 340.954H22.3347L22.4657 341.335C22.686 342.049 22.8408 342.603 22.9421 343.002C23.0433 343.395 23.0969 343.746 23.0969 344.044C23.0969 344.342 23.0314 344.55 22.9063 344.663C22.7813 344.776 22.561 344.836 22.2573 344.836H19.8695V346.039H22.2573C22.954 346.039 23.472 345.878 23.8055 345.55C24.1389 345.229 24.3057 344.723 24.3057 344.05C24.3057 343.705 24.258 343.341 24.1687 342.966C24.0794 342.591 23.9305 342.097 23.7281 341.489V341.478Z" fill="#08A650"></path><path d="M49.7195 343.984C49.7195 344.211 49.7017 344.383 49.6659 344.502C49.6302 344.622 49.5647 344.705 49.4754 344.753C49.3861 344.8 49.2551 344.824 49.0883 344.824H48.1356C47.7962 344.824 47.5104 344.776 47.2782 344.687C47.2067 344.657 47.1293 344.61 47.0579 344.568C47.0876 344.366 47.1114 344.151 47.1114 343.907V340.948H45.9086V343.907C45.9086 344.252 45.855 344.502 45.7538 344.639C45.6526 344.782 45.4799 344.854 45.2417 344.854H45.1286C44.8666 344.854 44.6225 344.8 44.3962 344.693C44.2652 344.633 44.1163 344.532 43.9556 344.419C43.9734 344.258 43.9853 344.086 43.9853 343.901V340.942H42.7944V343.901C42.7944 344.246 42.7408 344.497 42.6456 344.633C42.5443 344.776 42.3717 344.848 42.1216 344.848H42.0144C41.7583 344.848 41.5202 344.794 41.2939 344.687C41.1569 344.628 41.0081 344.526 40.8473 344.407C40.8652 344.24 40.883 344.062 40.883 343.871V340.936H39.6802V343.871C39.6802 344.223 39.6385 344.467 39.5552 344.604C39.4718 344.741 39.311 344.812 39.0728 344.812H36.5005C36.179 344.812 35.8455 344.782 35.5061 344.723C35.7979 344.479 36.048 344.217 36.2564 343.931C36.4648 343.645 36.6255 343.353 36.7387 343.061C36.8518 342.77 36.9114 342.496 36.9114 342.246C36.9114 341.728 36.691 341.347 36.2445 341.096C35.7979 340.846 35.1131 340.721 34.1901 340.721C33.2672 340.721 32.5943 340.846 32.1477 341.096C31.7071 341.347 31.4808 341.734 31.4808 342.246C31.4808 342.502 31.5344 342.77 31.6416 343.061C31.7548 343.353 31.9096 343.645 32.1239 343.931C32.3323 344.217 32.5884 344.479 32.8861 344.723C32.5467 344.782 32.2073 344.812 31.8798 344.812H29.891V343.371C29.891 342.466 29.6945 341.799 29.3074 341.364C28.9204 340.93 28.313 340.715 27.5032 340.715C26.6934 340.715 26.0801 340.936 25.6871 341.364C25.2881 341.799 25.0916 342.466 25.0916 343.371C25.0916 344.276 25.2881 344.931 25.6871 345.36C26.0801 345.795 26.6875 346.009 27.5032 346.009H28.706V346.229C28.706 346.723 28.5989 347.081 28.3845 347.301C28.1701 347.521 27.8129 347.629 27.3067 347.629H26.1694V348.772H27.3067C28.188 348.772 28.837 348.563 29.2598 348.153C29.6826 347.736 29.891 347.099 29.891 346.229V346.009H31.8798C32.6896 346.009 33.4518 345.848 34.1842 345.527C34.9106 345.848 35.6788 346.009 36.4886 346.009H39.1086C39.704 346.009 40.1506 345.83 40.4424 345.479C40.4543 345.467 40.4602 345.449 40.4722 345.431C41.0914 345.842 41.6392 346.063 42.1097 346.063H42.2168C42.8182 346.063 43.2648 345.884 43.5506 345.527C43.5685 345.503 43.5804 345.473 43.5983 345.449C44.2056 345.854 44.7535 346.063 45.2239 346.063H45.331C45.9146 346.063 46.3493 345.89 46.641 345.545C46.8316 345.687 47.0162 345.801 47.1948 345.872C47.433 345.961 47.7367 346.009 48.0999 346.009H49.0705C49.7314 346.009 50.2078 345.848 50.4877 345.533C50.7675 345.217 50.9104 344.693 50.9104 343.967V337.702H49.7017V343.967L49.7195 343.984ZM26.5803 344.497C26.3957 344.276 26.3064 343.907 26.3064 343.383C26.3064 342.829 26.3957 342.436 26.5862 342.204C26.7708 341.972 27.0805 341.853 27.5092 341.853C27.9379 341.853 28.2416 341.972 28.4202 342.204C28.5989 342.436 28.6882 342.829 28.6882 343.383V344.824H27.5092C27.0745 344.824 26.7649 344.717 26.5803 344.497ZM34.1901 344.371C33.8507 344.205 33.5649 344.008 33.3387 343.776C33.1124 343.55 32.9457 343.318 32.8385 343.097C32.7313 342.871 32.6837 342.668 32.6837 342.496C32.6837 342.27 32.7968 342.109 33.029 342.008C33.2612 341.912 33.6483 341.859 34.1901 341.859C34.732 341.859 35.125 341.906 35.3572 342.008C35.5895 342.109 35.7085 342.27 35.7085 342.496C35.7085 342.668 35.655 342.871 35.5478 343.097C35.4406 343.323 35.2739 343.55 35.0476 343.776C34.8154 344.008 34.5296 344.205 34.1901 344.371Z" fill="#08A650"></path><path d="M53.5066 337.72H52.3097V346.027H53.5066V337.72Z" fill="#08A650"></path><path d="M60.5091 339.096C60.7235 339.096 60.9021 339.03 61.0331 338.893C61.1641 338.756 61.2296 338.584 61.2296 338.375C61.2296 338.149 61.1641 337.97 61.0331 337.845C60.9021 337.72 60.7294 337.655 60.5091 337.655C60.2888 337.655 60.1161 337.72 59.9851 337.845C59.8541 337.97 59.7886 338.149 59.7886 338.375C59.7886 338.584 59.8541 338.756 59.9851 338.893C60.1161 339.03 60.2888 339.096 60.5091 339.096Z" fill="#08A650"></path><path d="M58.7287 339.096C58.949 339.096 59.1217 339.03 59.2527 338.893C59.3837 338.756 59.4492 338.584 59.4492 338.375C59.4492 338.149 59.3837 337.97 59.2527 337.845C59.1217 337.72 58.949 337.655 58.7287 337.655C58.5084 337.655 58.3357 337.72 58.2047 337.845C58.0737 337.97 58.0082 338.149 58.0082 338.375C58.0082 338.584 58.0737 338.756 58.2047 338.893C58.3357 339.03 58.5084 339.096 58.7287 339.096Z" fill="#08A650"></path><path d="M64.9393 347.414C64.7189 347.414 64.5463 347.48 64.4153 347.605C64.2843 347.73 64.2188 347.908 64.2188 348.135C64.2188 348.343 64.2843 348.516 64.4153 348.653C64.5463 348.79 64.7189 348.855 64.9393 348.855C65.1596 348.855 65.3323 348.79 65.4633 348.653C65.5943 348.516 65.6598 348.343 65.6598 348.135C65.6598 347.908 65.5943 347.736 65.4633 347.605C65.3323 347.48 65.1596 347.414 64.9393 347.414Z" fill="#08A650"></path><path d="M63.1589 347.414C62.9385 347.414 62.7659 347.48 62.6349 347.605C62.5039 347.73 62.4384 347.908 62.4384 348.135C62.4384 348.343 62.5039 348.516 62.6349 348.653C62.7659 348.79 62.9385 348.855 63.1589 348.855C63.3792 348.855 63.5519 348.79 63.6829 348.653C63.8139 348.516 63.8794 348.343 63.8794 348.135C63.8794 347.908 63.8139 347.736 63.6829 347.605C63.5519 347.48 63.3792 347.414 63.1589 347.414Z" fill="#08A650"></path><path d="M70.3221 340.954H69.1134V343.99C69.1134 344.217 69.0955 344.389 69.0598 344.508C69.0241 344.628 68.9586 344.711 68.8692 344.759C68.7799 344.806 68.6489 344.83 68.4822 344.83H67.202C66.8626 344.83 66.5767 344.782 66.3445 344.693C66.2612 344.657 66.1718 344.61 66.0825 344.556C66.1063 344.383 66.1183 344.199 66.1183 343.99V340.954H64.9035V343.99C64.9035 344.217 64.8857 344.389 64.8499 344.508C64.8142 344.628 64.7487 344.711 64.6594 344.759C64.5701 344.806 64.4391 344.83 64.2724 344.83H61.968V343.389C61.968 342.484 61.7715 341.817 61.3844 341.382C60.9914 340.948 60.39 340.733 59.5802 340.733C58.7704 340.733 58.1571 340.954 57.7641 341.382C57.3651 341.817 57.1686 342.484 57.1686 343.389C57.1686 344.294 57.3651 344.949 57.7641 345.378C58.1571 345.812 58.7644 346.027 59.5802 346.027H64.2724C64.9333 346.027 65.4097 345.866 65.6895 345.55C65.886 345.699 66.0825 345.824 66.2671 345.89C66.5053 345.979 66.809 346.027 67.1722 346.027H68.4703C69.1312 346.027 69.6076 345.866 69.8875 345.55C70.1733 345.235 70.3162 344.711 70.3162 343.984V340.948L70.3221 340.954ZM58.6513 344.497C58.4667 344.276 58.3774 343.907 58.3774 343.383C58.3774 342.829 58.4727 342.436 58.6572 342.204C58.8418 341.972 59.1515 341.853 59.5802 341.853C60.0089 341.853 60.3126 341.972 60.4912 342.204C60.6699 342.436 60.7592 342.829 60.7592 343.383V344.824H59.5802C59.1455 344.824 58.8359 344.717 58.6513 344.497Z" fill="#08A650"></path><path d="M68.4643 347.414C68.244 347.414 68.0713 347.48 67.9403 347.605C67.8093 347.73 67.7438 347.908 67.7438 348.135C67.7438 348.343 67.8093 348.516 67.9403 348.653C68.0713 348.79 68.244 348.855 68.4643 348.855C68.6846 348.855 68.8573 348.79 68.9883 348.653C69.1193 348.516 69.1848 348.343 69.1848 348.135C69.1848 347.908 69.1193 347.73 68.9883 347.605C68.8573 347.48 68.6846 347.414 68.4643 347.414Z" fill="#08A650"></path><path d="M81.9215 343.984C81.9215 344.211 81.9037 344.383 81.8679 344.502C81.8263 344.622 81.7667 344.705 81.6774 344.753C81.5881 344.8 81.4571 344.824 81.2904 344.824H79.4445C79.1229 344.824 78.7954 344.794 78.4501 344.735C78.7418 344.491 78.9919 344.229 79.2063 343.943C79.4147 343.657 79.5755 343.365 79.6886 343.073C79.8017 342.782 79.8613 342.508 79.8613 342.258C79.8613 341.74 79.641 341.358 79.1944 341.108C78.7478 340.858 78.069 340.733 77.1401 340.733C76.2112 340.733 75.5442 340.858 75.0977 341.108C74.6511 341.358 74.4308 341.746 74.4308 342.258C74.4308 342.514 74.4843 342.782 74.5915 343.073C74.6987 343.365 74.8595 343.657 75.0738 343.943C75.2822 344.229 75.5383 344.491 75.842 344.735C75.5026 344.794 75.1632 344.824 74.8357 344.824H73.6031C73.3887 344.824 73.1922 344.759 73.0136 344.639V340.948H71.8108V345.61C71.8108 346.086 71.7572 346.462 71.65 346.741C71.5428 347.021 71.3642 347.23 71.12 347.361C70.8759 347.492 70.5425 347.557 70.1078 347.557V348.736C71.1141 348.706 71.8465 348.438 72.3169 347.938C72.7397 347.486 72.96 346.795 72.9957 345.902C73.1684 345.979 73.353 346.033 73.5793 346.033H74.8357C75.6395 346.033 76.4077 345.872 77.1401 345.55C77.8665 345.872 78.6346 346.033 79.4445 346.033H81.2904C81.9513 346.033 82.4277 345.872 82.7075 345.556C82.9874 345.241 83.1303 344.717 83.1303 343.99V337.726H81.9215V343.99V343.984ZM77.1401 344.371C76.7947 344.205 76.5148 344.008 76.2886 343.776C76.0623 343.55 75.8956 343.318 75.7884 343.097C75.6812 342.871 75.6336 342.668 75.6336 342.496C75.6336 342.27 75.7467 342.109 75.9789 342.008C76.2052 341.912 76.5922 341.859 77.1401 341.859C77.6879 341.859 78.0749 341.906 78.3071 342.008C78.5394 342.109 78.6585 342.27 78.6585 342.496C78.6585 342.668 78.6049 342.871 78.4977 343.097C78.3905 343.323 78.2238 343.55 77.9975 343.776C77.7653 344.008 77.4795 344.205 77.1401 344.371Z" fill="#08A650"></path><path d="M85.7086 337.72H84.5117V346.027H85.7086V337.72Z" fill="#08A650"></path><path d="M90.9307 339.096C91.151 339.096 91.3237 339.03 91.4547 338.893C91.5857 338.756 91.6512 338.584 91.6512 338.375C91.6512 338.149 91.5857 337.97 91.4547 337.845C91.3237 337.72 91.151 337.655 90.9307 337.655C90.7104 337.655 90.5377 337.72 90.4067 337.845C90.2757 337.97 90.2102 338.149 90.2102 338.375C90.2102 338.584 90.2757 338.756 90.4067 338.893C90.5377 339.03 90.7104 339.096 90.9307 339.096Z" fill="#08A650"></path><path d="M92.7111 339.096C92.9255 339.096 93.1041 339.03 93.2351 338.893C93.3661 338.756 93.4316 338.584 93.4316 338.375C93.4316 338.149 93.3661 337.97 93.2351 337.845C93.1041 337.72 92.9314 337.655 92.7111 337.655C92.4908 337.655 92.3181 337.72 92.1871 337.845C92.0561 337.97 91.9906 338.149 91.9906 338.375C91.9906 338.584 92.0561 338.756 92.1871 338.893C92.3181 339.03 92.4908 339.096 92.7111 339.096Z" fill="#08A650"></path><path d="M120.596 343.984C120.596 344.211 120.578 344.383 120.543 344.502C120.507 344.622 120.441 344.705 120.352 344.753C120.263 344.8 120.132 344.824 119.965 344.824H119.036C118.744 344.824 118.506 344.782 118.304 344.705C118.423 344.348 118.494 343.925 118.494 343.431C118.494 342.514 118.292 341.835 117.881 341.394C117.47 340.954 116.845 340.733 115.993 340.733C115.142 340.733 114.499 340.954 114.088 341.394C113.677 341.835 113.469 342.514 113.469 343.431C113.469 343.437 113.469 343.443 113.469 343.449C113.469 343.8 113.451 344.074 113.415 344.276C113.379 344.479 113.32 344.616 113.23 344.705C113.141 344.788 113.022 344.83 112.867 344.83H112.391C112.099 344.83 111.861 344.788 111.658 344.711C111.777 344.354 111.849 343.931 111.849 343.437C111.849 342.52 111.646 341.841 111.236 341.4C110.825 340.96 110.2 340.739 109.348 340.739C108.497 340.739 107.853 340.96 107.443 341.4C107.032 341.841 106.823 342.52 106.823 343.437C106.823 343.443 106.823 343.449 106.823 343.454C106.823 343.806 106.805 344.08 106.77 344.282C106.734 344.485 106.674 344.622 106.585 344.711C106.496 344.794 106.377 344.836 106.222 344.836H105.722C105.382 344.836 105.096 344.788 104.864 344.699C104.733 344.645 104.602 344.568 104.459 344.473C104.477 344.324 104.483 344.169 104.483 343.996V337.732H103.274V343.996C103.274 344.223 103.257 344.395 103.221 344.514C103.185 344.633 103.12 344.717 103.03 344.764C102.941 344.812 102.81 344.836 102.643 344.836H101.691C101.381 344.836 101.125 344.794 100.91 344.717C101 344.431 101.047 344.104 101.047 343.716C101.047 342.93 100.857 342.347 100.47 341.972C100.083 341.591 99.4933 341.406 98.6954 341.406H97.2068L100.13 338.482L99.3028 337.643L95.4264 341.495V342.567H98.6894C99.0944 342.567 99.3921 342.657 99.5707 342.841C99.7494 343.02 99.8446 343.312 99.8446 343.711C99.8446 344.109 99.7553 344.401 99.5767 344.574C99.398 344.747 99.1003 344.836 98.6894 344.836H94.17V343.395C94.17 342.49 93.9735 341.823 93.5864 341.388C93.1994 340.954 92.592 340.739 91.7822 340.739C90.9724 340.739 90.3591 340.96 89.9661 341.388C89.5671 341.823 89.3706 342.49 89.3706 343.395C89.3706 344.3 89.5671 344.955 89.9661 345.384C90.365 345.812 90.9664 346.033 91.7822 346.033H98.6894C99.3683 346.033 99.8923 345.89 100.273 345.616C100.44 345.735 100.607 345.836 100.768 345.896C101.006 345.985 101.309 346.033 101.673 346.033H102.643C103.304 346.033 103.781 345.872 104.06 345.556C104.078 345.533 104.096 345.503 104.114 345.473C104.346 345.664 104.573 345.807 104.793 345.89C105.031 345.979 105.335 346.027 105.698 346.027H106.222C106.579 346.027 106.859 345.943 107.056 345.789C107.181 345.687 107.282 345.539 107.365 345.354C107.389 345.384 107.413 345.425 107.437 345.455C107.847 345.896 108.485 346.116 109.342 346.116C110.086 346.116 110.652 345.938 111.057 345.598C111.218 345.723 111.379 345.83 111.527 345.89C111.748 345.979 112.028 346.027 112.361 346.027H112.861C113.218 346.027 113.498 345.943 113.701 345.789C113.826 345.687 113.927 345.539 114.01 345.354C114.034 345.384 114.058 345.425 114.082 345.455C114.493 345.896 115.13 346.116 115.987 346.116C116.732 346.116 117.297 345.938 117.702 345.598C117.863 345.723 118.024 345.83 118.173 345.89C118.393 345.979 118.673 346.027 119.006 346.027H119.959C120.62 346.027 121.096 345.866 121.376 345.55C121.662 345.235 121.799 344.711 121.799 343.984V337.72H120.59V343.984H120.596ZM90.8533 344.497C90.6687 344.276 90.5794 343.907 90.5794 343.383C90.5794 342.829 90.6747 342.436 90.8593 342.204C91.0438 341.972 91.3535 341.853 91.7822 341.853C92.2109 341.853 92.5146 341.972 92.6932 342.204C92.8719 342.436 92.9612 342.829 92.9612 343.383V344.824H91.7822C91.3416 344.824 91.0379 344.717 90.8533 344.497ZM110.319 344.699C110.122 344.955 109.795 345.08 109.342 345.08C108.89 345.08 108.55 344.955 108.348 344.699C108.145 344.443 108.044 344.02 108.044 343.431C108.044 342.841 108.145 342.418 108.348 342.162C108.55 341.906 108.884 341.781 109.342 341.781C109.801 341.781 110.116 341.906 110.319 342.162C110.521 342.418 110.622 342.841 110.622 343.431C110.622 344.02 110.521 344.443 110.319 344.699ZM116.97 344.699C116.773 344.955 116.446 345.08 115.993 345.08C115.541 345.08 115.201 344.955 114.999 344.699C114.796 344.443 114.695 344.02 114.695 343.431C114.695 342.841 114.796 342.418 114.999 342.162C115.201 341.906 115.535 341.781 115.993 341.781C116.452 341.781 116.767 341.906 116.97 342.162C117.172 342.418 117.268 342.841 117.268 343.431C117.268 344.02 117.166 344.443 116.97 344.699Z" fill="#08A650"></path><path d="M124.383 337.72H123.186V346.027H124.383V337.72Z" fill="#08A650"></path><path d="M239.19 228.054C226.741 225.359 206.727 225.041 180.967 238.075C190.717 240.728 215.183 248.952 234.391 268.426C238.133 271.384 241.374 274.577 244.239 277.936C252.278 265.095 257.577 251.329 260.484 237.328C258.412 235.725 251.11 230.611 239.19 228.026V228.054Z" fill="#03A550"></path><path d="M140.662 321.391C137.032 320.299 134.237 319.29 132.484 318.613C132.039 324.072 131.886 330.002 132.178 336.249C134.042 332.31 136.893 326.961 140.662 321.405V321.391Z" fill="#FCEE1F"></path><path d="M246.455 280.728C251.379 287.197 254.731 294.315 256.469 301.931C264.759 295.808 271.686 288.717 277.402 280.977C275.998 258.296 267.346 245.193 263.271 240.204C260.128 254.191 254.647 267.916 246.455 280.728Z" fill="#03A550"></path><path d="M215.89 320.618C216.669 320.425 217.364 320.162 218.116 319.955C216.933 318.13 215.751 316.444 214.569 314.896C210.786 317.757 206.78 320.494 202.538 323.106C203.094 323.023 203.65 322.954 204.221 322.857C207.976 321.959 211.829 321.171 215.89 320.605V320.618Z" fill="#F69320"></path><path d="M182.179 330.306C182.291 330.223 182.388 330.126 182.513 330.071C184.238 329.283 185.893 328.468 187.562 327.638C186.296 327.666 185.017 327.735 183.779 327.735C167.478 327.735 153.611 324.985 144.069 322.359C137.351 332.034 133.512 341.266 132.706 343.312C133.401 350.085 134.653 357.12 136.739 364.224C141.913 357.921 157.143 341.446 182.193 330.292L182.179 330.306Z" fill="#EF4137"></path><path d="M242.393 280.797C239.527 277.327 236.175 274.052 232.336 270.997C230.431 270.099 196.02 254.246 149.467 266.035C160.177 269.408 183.808 278.654 203.823 299.124C205.242 300.174 209.804 303.837 215.103 310.292C226.272 301.418 235.299 291.439 242.393 280.783V280.797Z" fill="#046938"></path><path d="M194.527 323.99C201.036 320.382 207.031 316.471 212.539 312.297C206.766 305.275 201.968 301.82 201.718 301.64C201.718 301.64 201.69 301.627 201.676 301.613C190.688 296.374 179.881 295.725 169.769 299.775C159.991 303.7 152.091 311.537 146.11 319.525C157.46 322.538 174.651 325.524 194.527 323.976V323.99Z" fill="#F69320"></path><path d="M122.104 83.2053C122.786 85.0574 123.564 86.8542 124.413 88.6233C128.071 84.3525 133.746 78.6027 142.328 71.9131C153.719 63.0259 148.976 50.8907 147.376 47.5735C147.349 47.5182 147.321 47.4629 147.293 47.4077C147.112 47.0345 146.973 46.7857 146.931 46.7166C146.876 46.6337 146.876 46.5369 146.834 46.4402C144.358 41.1327 142.508 36.0741 141.173 31.4715C137.223 17.8988 136.778 6.48227 136.973 0C125.567 16.4199 110.56 51.72 122.104 83.2053Z" fill="#EF4137"></path><path d="M142.636 318.557C148.964 309.877 157.574 301.142 168.52 296.747C173.319 294.812 178.27 293.913 183.319 293.927C157.296 289.532 137.545 295.351 137.545 295.351C137.545 295.351 134.123 301.197 132.788 315.185C134.388 315.834 137.74 317.106 142.636 318.557Z" fill="#03A550"></path><path d="M217.717 311.425C219.122 313.264 220.541 315.295 221.946 317.521C234.241 313.899 244.979 308.799 254.145 302.497C252.67 295.199 249.583 288.385 245.062 282.165C237.885 292.725 228.83 302.607 217.717 311.425Z" fill="#046938"></path><path d="M158.073 120.73C164.026 123.66 170.675 126.162 177.921 128.277C183.652 129.935 189.563 131.138 196.031 132.492C216.504 136.169 237.02 146.728 253.85 161.282C246.742 143.936 235.893 130.115 224.752 119.486C197.908 110.889 174.235 115.049 158.087 120.73H158.073Z" fill="#046938"></path><path d="M281.251 201.683C276.383 191.413 269.526 181.683 261.334 172.975C266.925 192.975 268.233 214.813 264.13 236.195C267.148 239.277 277.788 251.689 280.445 275.71C295.703 245.718 289.472 219.056 281.251 201.696V201.683Z" fill="#046938"></path><path d="M122.618 20.3175C120.309 24.0908 118.014 28.1266 115.872 32.3422L114.69 34.678C105.899 52.0101 97.5819 68.3886 108.347 80.2612C115.093 87.6972 118.431 91.9266 120.086 94.2071C120.601 93.4469 121.269 92.5071 122.117 91.4152C120.949 89.1208 119.878 86.785 118.988 84.3386C110.934 62.3763 115.302 38.6862 122.604 20.3175H122.618Z" fill="#FCEE1F"></path><path d="M104.707 126.203C106.223 121.062 109.937 110.889 118.227 97.2751C117.239 95.7686 114.221 91.6222 105.904 82.4585C93.622 68.9273 102.83 50.7659 111.745 33.1988L112.928 30.8768C116.85 23.1229 121.329 15.922 125.404 9.93726C105.125 32.1207 74.2748 77.6625 104.721 126.217L104.707 126.203Z" fill="#F69320"></path><path d="M152.96 57.6627C152.96 63.0531 151.054 69.2728 144.364 74.4835C135.267 81.5739 129.509 87.6277 126.046 91.8156C132.096 102.762 141.513 111.719 154.17 118.671C169.622 112.783 192.697 107.779 219.221 114.469C210.473 106.936 201.919 101.339 195.284 97.51C174.713 85.6512 161.5 71.346 152.96 57.6627Z" fill="#F69320"></path><path d="M252.239 132.576C245.382 128.167 238.623 124.767 232.03 122.127C242.893 133.558 253.004 148.112 259.166 166.094C259.194 166.135 259.236 166.163 259.249 166.204C269.681 176.266 278.374 187.876 284.244 200.274C290.67 213.819 295.885 232.837 291.393 254.662C296.831 239.527 298.834 223.522 297.596 208.332C295.093 177.524 278.138 149.204 252.239 132.576Z" fill="#03A550"></path><path d="M256.482 168.415C249.875 167.862 211.696 165.623 180.192 184.227C194.49 184.752 231.683 190.502 261.378 232.602C264.953 211.386 263.172 189.797 257.108 170.226C256.913 169.617 256.677 169.037 256.482 168.429V168.415Z" fill="#046938"></path><path d="M159.397 158.616C173.82 154.788 210.373 147.85 249.36 161.795C233.49 148.693 214.546 139.183 195.616 135.756C193.682 136.129 179.829 139.322 159.397 158.616Z" fill="#03A550"></path><path d="M143.021 127.296C148.056 126.729 155.08 126.301 163.48 126.729C160.115 125.347 156.929 123.868 153.911 122.265C149.544 123.993 145.886 125.762 143.021 127.296Z" fill="#046938"></path><path d="M123.853 94.6376C123.019 95.7848 122.435 96.6555 122.087 97.2222C124.201 100.526 131.614 112.73 135.898 127.643C138.43 126.04 143.367 123.179 150.225 120.276C138.625 113.49 129.834 104.921 123.853 94.6514V94.6376Z" fill="#03A550"></path><path d="M6.53475 181.518C4.19805 181.518 2.52899 180.965 1.52755 179.845C0.52611 178.74 0.0253906 176.901 0.0253906 174.345V166.95H4.30932V174.345C4.30932 175.132 4.37887 175.74 4.50405 176.169C4.62923 176.584 4.85177 176.888 5.17168 177.054C5.49158 177.219 5.95057 177.302 6.53475 177.302H10.8187V181.518H6.53475ZM8.95489 181.518V177.302H22.7525V181.518H8.95489ZM12.7659 157.192C12.0009 157.192 11.375 156.957 10.916 156.487C10.457 156.017 10.2206 155.409 10.2206 154.663C10.2206 153.875 10.457 153.253 10.916 152.811C11.375 152.368 12.0009 152.147 12.7659 152.147C13.5309 152.147 14.1568 152.368 14.6158 152.811C15.0748 153.253 15.3112 153.875 15.3112 154.663C15.3112 155.409 15.0748 156.003 14.6158 156.487C14.1568 156.957 13.5309 157.192 12.7659 157.192ZM19.0527 157.192C18.2877 157.192 17.6618 156.957 17.2029 156.487C16.7439 156.017 16.5074 155.409 16.5074 154.663C16.5074 153.875 16.7439 153.253 17.2029 152.811C17.6618 152.368 18.2877 152.147 19.0527 152.147C19.8177 152.147 20.4436 152.368 20.9026 152.811C21.3616 153.253 21.5981 153.875 21.5981 154.663C21.5981 155.409 21.3616 156.003 20.9026 156.487C20.4436 156.957 19.8177 157.192 19.0527 157.192ZM21.0139 181.518V177.302H25.2978C25.882 177.302 26.341 177.219 26.6609 177.054C26.9808 176.888 27.2033 176.597 27.3285 176.169C27.4537 175.754 27.5232 175.146 27.5232 174.345V163.702H31.8072V174.345C31.8072 176.901 31.3065 178.726 30.305 179.845C29.3036 180.965 27.6345 181.518 25.2978 181.518H21.0139Z" fill="white"></path><path d="M36.6309 173.432V152.368H40.9148V173.321L36.6309 173.432ZM43.1402 181.517C40.8035 181.517 39.1345 180.965 38.133 179.845C37.1316 178.725 36.6309 176.901 36.6309 174.344V166.95H40.9148V174.344C40.9148 175.132 40.9843 175.74 41.1095 176.169C41.2347 176.597 41.4572 176.887 41.7771 177.053C42.097 177.219 42.556 177.302 43.1402 177.302H45.9637V181.517H43.1402Z" fill="white"></path><path d="M45.1855 181.518V177.302H50.8882C51.7366 177.302 52.3069 177.053 52.599 176.57C52.8911 176.086 53.0441 175.229 53.0441 173.999V163.702H57.2863V173.999C57.2863 176.528 56.7716 178.408 55.7424 179.652C54.7131 180.896 53.1414 181.504 51.0412 181.504H45.1855V181.518ZM53.0441 173.556V163.716H57.2863V173.556H53.0441ZM61.6397 181.711C59.8177 181.711 57.6757 180.84 55.2417 179.113L55.9371 174.939C57.022 175.865 57.9539 176.5 58.7467 176.874C59.5395 177.247 60.3879 177.426 61.292 177.426H61.6815C62.5577 177.426 63.1697 177.178 63.5314 176.68C63.893 176.183 64.0738 175.326 64.0738 174.096V163.716H68.2743V174.096C68.2743 176.68 67.7597 178.588 66.7582 179.845C65.7568 181.103 64.1712 181.725 62.0431 181.725H61.6537L61.6397 181.711ZM72.6695 181.711C70.8196 181.711 68.6776 180.84 66.2297 179.113L66.9251 174.939C68.01 175.865 68.9419 176.5 69.7347 176.874C70.5275 177.247 71.3899 177.426 72.3218 177.426H72.7112C73.5597 177.426 74.1577 177.178 74.5194 176.68C74.881 176.183 75.0618 175.326 75.0618 174.096V163.716H79.304V174.096C79.304 176.68 78.7894 178.588 77.7601 179.845C76.7309 181.103 75.1592 181.725 73.0589 181.725H72.6695V181.711ZM77.329 175.118C78.233 175.934 79.0815 176.5 79.8882 176.818C80.6949 177.136 81.7103 177.302 82.9203 177.302H83.9218V181.518H82.8369C81.5573 181.518 80.4863 181.352 79.6378 181.034C78.7894 180.716 77.8992 180.163 76.9812 179.362L77.329 175.104V175.118Z" fill="white"></path><path d="M83.1479 177.302H99.5604L97.5575 179.293V165.844L99.5604 167.793H94.2472C92.6755 167.793 91.5489 168.152 90.8813 168.885C90.1997 169.618 89.8659 170.82 89.8659 172.506C89.8659 174.192 90.1997 175.436 90.8813 176.183C91.5628 176.929 92.6894 177.288 94.2472 177.288V180.55C91.3125 180.578 89.1427 179.928 87.7379 178.615C86.3192 177.302 85.6237 175.271 85.6237 172.506C85.6237 169.493 86.3331 167.268 87.7379 165.817C89.1566 164.379 91.3264 163.647 94.2472 163.647H101.841V181.49H83.1479V177.275V177.302ZM93.7465 157.192C92.9815 157.192 92.3556 156.957 91.8966 156.487C91.4376 156.017 91.2012 155.409 91.2012 154.663C91.2012 153.875 91.4376 153.253 91.8966 152.811C92.3556 152.368 92.9815 152.147 93.7465 152.147C94.5115 152.147 95.1374 152.368 95.5964 152.811C96.0554 153.253 96.2918 153.875 96.2918 154.663C96.2918 155.409 96.0554 156.003 95.5964 156.487C95.1374 156.957 94.5115 157.192 93.7465 157.192Z" fill="white"></path><path d="M107.232 173.432V152.368H111.516V173.321L107.232 173.432ZM113.741 181.517C111.405 181.517 109.736 180.965 108.734 179.845C107.733 178.739 107.232 176.901 107.232 174.344V166.95H111.516V174.344C111.516 175.132 111.585 175.74 111.711 176.169C111.836 176.583 112.058 176.887 112.378 177.053C112.698 177.219 113.157 177.302 113.741 177.302H117.052V181.517H113.741Z" fill="white"></path><path d="M116.284 181.518V177.302H121.111C121.695 177.302 122.154 177.219 122.474 177.054C122.794 176.888 123.016 176.597 123.141 176.169C123.266 175.754 123.336 175.146 123.336 174.345V163.702H127.62V174.345C127.62 176.901 127.119 178.726 126.118 179.845C125.116 180.965 123.447 181.518 121.111 181.518H116.284ZM123.211 157.192C122.446 157.192 121.82 156.957 121.361 156.487C120.902 156.017 120.665 155.409 120.665 154.663C120.665 153.875 120.902 153.253 121.361 152.811C121.82 152.368 122.446 152.147 123.211 152.147C123.976 152.147 124.602 152.368 125.061 152.811C125.52 153.253 125.756 153.875 125.756 154.663C125.756 155.409 125.52 156.003 125.061 156.487C124.602 156.957 123.976 157.192 123.211 157.192ZM125.853 175.118C126.758 175.934 127.606 176.501 128.413 176.819C129.219 177.136 130.235 177.302 131.445 177.302H131.904V181.518H131.375C130.096 181.518 129.025 181.352 128.176 181.034C127.328 180.716 126.438 180.163 125.52 179.362L125.867 175.105L125.853 175.118Z" fill="white"></path><path d="M132.662 177.301C133.204 177.301 133.622 177.149 133.928 176.859C134.234 176.568 134.456 176.071 134.581 175.366C134.707 174.661 134.776 173.693 134.776 172.477H137.586C137.586 174.799 137.433 176.61 137.127 177.895C136.821 179.181 136.306 180.107 135.611 180.673C134.901 181.24 133.928 181.516 132.662 181.516H131.118V177.301H132.662ZM143.678 181.82C140.646 181.82 138.406 181.046 136.946 179.498C135.499 177.95 134.762 175.587 134.762 172.394C134.762 169.201 135.486 166.797 136.946 165.249C138.393 163.701 140.646 162.927 143.678 162.927C146.71 162.927 148.908 163.701 150.34 165.249C151.773 166.797 152.496 169.174 152.496 172.394C152.496 175.615 151.773 177.95 150.34 179.498C148.908 181.046 146.682 181.82 143.678 181.82ZM143.678 178.185C145.277 178.185 146.418 177.743 147.127 176.845C147.837 175.946 148.184 174.467 148.184 172.408C148.184 170.349 147.837 168.856 147.127 167.971C146.418 167.073 145.263 166.631 143.678 166.631C142.092 166.631 140.896 167.073 140.173 167.971C139.45 168.87 139.088 170.349 139.088 172.408C139.088 174.467 139.45 175.96 140.173 176.845C140.896 177.743 142.064 178.185 143.678 178.185Z" fill="white"></path><path d="M23.7146 226.921C23.7146 230.501 22.741 233.141 20.7799 234.869C18.8326 236.596 15.8283 237.453 11.7947 237.453C7.76115 237.453 4.81247 236.596 2.89305 234.869C0.959712 233.141 0 230.501 0 226.921V216.196H4.24221V226.921C4.24221 228.511 4.47866 229.755 4.95156 230.653C5.42446 231.565 6.21727 232.215 7.30216 232.629C8.38705 233.044 9.88921 233.238 11.7947 233.238C13.7002 233.238 15.2441 233.03 16.3429 232.629C17.4417 232.215 18.2484 231.565 18.7353 230.653C19.2221 229.741 19.4724 228.497 19.4724 226.921V209.879H23.7146V226.921ZM11.8921 211.289C11.1271 211.289 10.5012 211.054 10.0422 210.584C9.58322 210.114 9.34677 209.506 9.34677 208.76C9.34677 207.972 9.58322 207.35 10.0422 206.908C10.5012 206.465 11.1271 206.23 11.8921 206.23C12.6571 206.23 13.283 206.452 13.742 206.908C14.201 207.35 14.4374 207.972 14.4374 208.76C14.4374 209.506 14.201 210.1 13.742 210.584C13.283 211.054 12.6571 211.289 11.8921 211.289ZM20.7103 219.679C21.6839 221.006 22.5185 221.932 23.2139 222.443C23.9094 222.954 24.6604 223.203 25.4811 223.203H26.4825V227.419H25.3976C24.424 227.419 23.5895 227.211 22.9079 226.783C22.2264 226.368 21.4892 225.608 20.6964 224.502V219.679H20.7103Z" fill="white"></path><path d="M29.8915 227.417H25.7202V223.203H29.8915V227.417Z" fill="white"></path><path d="M38.1638 227.418H25.2285V223.203H38.1638V227.418Z" fill="white"></path><path d="M39.6679 237.329C38.9029 237.329 38.277 237.094 37.818 236.624C37.359 236.154 37.1226 235.546 37.1226 234.8C37.1226 234.012 37.359 233.39 37.818 232.948C38.277 232.505 38.9029 232.27 39.6679 232.27C40.4329 232.27 41.0588 232.492 41.5178 232.948C41.9768 233.39 42.2132 234.012 42.2132 234.8C42.2132 235.546 41.9768 236.14 41.5178 236.624C41.0588 237.108 40.4329 237.329 39.6679 237.329ZM37.4007 227.419V223.204H43.6041C44.1883 223.204 44.6473 223.121 44.9672 222.955C45.2871 222.789 45.5096 222.499 45.6348 222.07C45.76 221.642 45.8295 221.047 45.8295 220.246V209.603H50.1135V220.246C50.1135 222.803 49.6127 224.627 48.6113 225.747C47.6099 226.866 45.9408 227.419 43.6041 227.419H37.4007ZM45.9547 237.329C45.1897 237.329 44.5638 237.094 44.1048 236.624C43.6458 236.154 43.4094 235.546 43.4094 234.8C43.4094 234.012 43.6458 233.39 44.1048 232.948C44.5638 232.505 45.1897 232.27 45.9547 232.27C46.7197 232.27 47.3456 232.492 47.8046 232.948C48.2636 233.39 48.5 234.012 48.5 234.8C48.5 235.546 48.2636 236.14 47.8046 236.624C47.3456 237.108 46.7197 237.329 45.9547 237.329ZM48.3331 221.02C49.2372 221.835 50.0856 222.402 50.8923 222.72C51.6991 223.038 52.7144 223.204 53.9245 223.204H54.9259V227.419H53.841C52.5614 227.419 51.4904 227.253 50.642 226.935C49.7935 226.618 48.9034 226.065 47.9854 225.263L48.3331 221.006V221.02Z" fill="white"></path><path d="M56.4301 237.329C55.6651 237.329 55.0392 237.094 54.5802 236.624C54.1212 236.154 53.8848 235.546 53.8848 234.8C53.8848 234.012 54.1212 233.39 54.5802 232.948C55.0392 232.505 55.6651 232.27 56.4301 232.27C57.1951 232.27 57.821 232.492 58.28 232.948C58.739 233.39 58.9754 234.012 58.9754 234.8C58.9754 235.546 58.739 236.14 58.28 236.624C57.821 237.108 57.1951 237.329 56.4301 237.329ZM54.1629 227.419V223.204H60.3663C60.9505 223.204 61.4095 223.121 61.7294 222.955C62.0493 222.789 62.2718 222.499 62.397 222.07C62.5222 221.642 62.5917 221.047 62.5917 220.246V209.603H66.8757V220.246C66.8757 222.803 66.3749 224.627 65.3735 225.747C64.3721 226.866 62.703 227.419 60.3663 227.419H54.1629ZM62.7169 237.329C61.9519 237.329 61.326 237.094 60.867 236.624C60.408 236.154 60.1716 235.546 60.1716 234.8C60.1716 234.012 60.408 233.39 60.867 232.948C61.326 232.505 61.9519 232.27 62.7169 232.27C63.4819 232.27 64.1078 232.492 64.5668 232.948C65.0258 233.39 65.2622 234.012 65.2622 234.8C65.2622 235.546 65.0258 236.14 64.5668 236.624C64.1078 237.108 63.4819 237.329 62.7169 237.329ZM65.1092 221.02C66.0133 221.835 66.8617 222.402 67.6685 222.72C68.4752 223.038 72.8982 223.204 74.1083 223.204H75.1097V227.419H74.0248C72.7452 227.419 68.2665 227.253 67.4181 226.935C66.5697 226.618 65.6795 226.065 64.7615 225.263L65.1092 221.006V221.02Z" fill="white"></path><path d="M74.3296 227.417V223.202H78.6135C79.1977 223.202 79.6567 223.119 79.9766 222.953C80.2965 222.787 80.519 222.497 80.6442 222.068C80.7694 221.64 80.8389 221.046 80.8389 220.244V209.601H85.1229V220.244C85.1229 222.801 84.6222 224.625 83.6207 225.745C82.6193 226.851 80.9502 227.417 78.6135 227.417H74.3296ZM75.2615 206.505V204.709H78.1128C77.1392 202.815 76.9166 201.391 77.4452 200.438C77.9737 199.484 79.2672 199 81.3118 199H83.0087V200.756H81.3118C80.4634 200.756 79.8653 200.894 79.5176 201.156C79.1699 201.419 79.0308 201.834 79.1142 202.4C79.1977 202.967 79.4898 203.727 80.0044 204.695H82.4663V206.491H75.2615V206.505Z" fill="white"></path><path d="M89.7358 219.333V198.269H94.0198V219.222L89.7358 219.333ZM96.2591 227.418C93.9224 227.418 92.2534 226.865 91.2519 225.746C90.2505 224.626 89.7498 222.802 89.7498 220.245V212.85H94.0337V220.245C94.0337 221.033 94.1032 221.641 94.2284 222.069C94.3536 222.498 94.5761 222.788 94.896 222.954C95.2159 223.12 95.6749 223.203 96.2591 223.203H102.003V227.418H96.2591Z" fill="white"></path><path d="M101.228 223.202H115.693L113.69 225.192V211.744L115.693 213.693H110.38C108.808 213.693 107.681 214.052 107.014 214.784C106.332 215.517 105.998 216.719 105.998 218.406C105.998 220.092 106.332 221.336 107.014 222.082C107.695 222.829 108.822 223.188 110.38 223.188V226.45C107.445 226.477 105.275 225.828 103.87 224.515C102.452 223.202 101.756 221.17 101.756 218.406C101.756 215.393 102.465 213.167 103.87 211.716C105.289 210.279 107.459 209.546 110.38 209.546H117.974V227.39H101.228V223.174V223.202ZM103.022 227.417V223.243H117.167V227.417H103.022ZM109.879 203.091C109.114 203.091 108.488 202.857 108.029 202.387C107.57 201.917 107.334 201.309 107.334 200.562C107.334 199.774 107.57 199.152 108.029 198.71C108.488 198.268 109.114 198.047 109.879 198.047C110.644 198.047 111.27 198.268 111.729 198.71C112.188 199.152 112.424 199.774 112.424 200.562C112.424 201.309 112.188 201.903 111.729 202.387C111.27 202.857 110.644 203.091 109.879 203.091Z" fill="white"></path><path d="M116.39 223.203H131.898V227.418H116.39V223.203ZM117.934 223.203H137.03V227.418H117.934V223.203ZM123.344 198.269H127.28V214.468H123.344V198.269ZM123.344 223.203H146.781L144.193 225.843V219.982C144.193 218.268 144.027 216.914 143.679 215.919C143.331 214.924 142.761 214.205 141.982 213.749C141.203 213.307 140.118 213.085 138.727 213.085C136.933 213.085 135.222 213.445 133.595 214.163C131.981 214.882 130.424 215.85 128.935 217.094C127.447 218.338 125.75 219.941 123.845 221.904V217.536C124.359 217.025 124.93 216.472 125.542 215.891C127.058 214.468 128.449 213.293 129.728 212.367C130.994 211.441 132.427 210.694 134.012 210.128C135.598 209.561 137.336 209.271 139.228 209.271C142.358 209.271 144.694 210.141 146.21 211.897C147.726 213.652 148.477 216.347 148.477 219.996V227.432H123.344V223.217V223.203ZM127.28 225.082H123.344V209.989H127.28V225.082Z" fill="white"></path><path d="M151.63 223.203H163.731V227.418H151.63V223.203ZM153.898 203.825H158.14L164.301 226.575H160.059L153.898 203.825ZM157.319 237.107V235.31H160.17C159.197 233.417 158.974 231.993 159.489 231.04C160.017 230.086 161.311 229.602 163.356 229.602H165.052V231.357H163.356C162.507 231.357 161.909 231.496 161.561 231.758C161.214 232.021 161.074 232.435 161.158 233.002C161.241 233.569 161.533 234.329 162.048 235.297H164.51V237.093H157.305L157.319 237.107ZM162.257 227.418V223.203H165.372C165.957 223.203 166.416 223.12 166.735 222.954C167.055 222.788 167.278 222.498 167.403 222.069C167.528 221.641 167.598 221.047 167.598 220.245V198.269H171.882V220.245C171.882 222.802 171.381 224.626 170.38 225.746C169.378 226.865 167.709 227.418 165.372 227.418H162.257Z" fill="white"></path><path d="M177.298 227.419V198.269H181.54V227.419H177.298Z" fill="white"></path><path d="M16.9666 272.008H12.6827V265.069C12.6827 263.134 12.3628 261.752 11.7369 260.937C11.111 260.121 10.04 259.707 8.52395 259.707C7.00788 259.707 5.92299 260.121 5.26927 260.937C4.61556 261.752 4.28174 263.134 4.28174 265.069C4.28174 266.908 4.60165 268.207 5.24146 268.981C5.88127 269.741 6.98007 270.128 8.52395 270.128H16.0765V274.344H8.52395C5.64481 274.344 3.50285 273.583 2.11196 272.063C0.707163 270.543 0.0117188 268.221 0.0117188 265.069C0.0117188 261.918 0.707163 259.555 2.11196 258.048C3.51676 256.528 5.64481 255.767 8.52395 255.767C11.4031 255.767 13.5311 256.528 14.9081 258.048C16.2851 259.568 16.9666 261.904 16.9666 265.069V272.008ZM5.51963 250.018C4.75465 250.018 4.12875 249.783 3.66975 249.313C3.21076 248.843 2.97431 248.235 2.97431 247.488C2.97431 246.701 3.21076 246.079 3.66975 245.636C4.12875 245.194 4.75465 244.973 5.51963 244.973C6.28462 244.973 6.91052 245.194 7.36952 245.636C7.82851 246.079 8.06496 246.701 8.06496 247.488C8.06496 248.235 7.82851 248.829 7.36952 249.313C6.91052 249.783 6.28462 250.018 5.51963 250.018ZM11.8064 250.018C11.0415 250.018 10.4156 249.783 9.95657 249.313C9.49757 248.843 9.26112 248.235 9.26112 247.488C9.26112 246.701 9.49757 246.079 9.95657 245.636C10.4156 245.194 11.0415 244.973 11.8064 244.973C12.5714 244.973 13.1973 245.194 13.6563 245.636C14.1153 246.079 14.3518 246.701 14.3518 247.488C14.3518 248.235 14.1153 248.829 13.6563 249.313C13.1973 249.783 12.5714 250.018 11.8064 250.018ZM11.0415 270.128H27.2036V274.344H11.0415V270.128Z" fill="white"></path><path d="M28.703 284.251C27.9381 284.251 27.3122 284.016 26.8532 283.546C26.3942 283.076 26.1577 282.468 26.1577 281.722C26.1577 280.934 26.3942 280.312 26.8532 279.87C27.3122 279.428 27.9381 279.193 28.703 279.193C29.468 279.193 30.0939 279.414 30.5529 279.87C31.0119 280.312 31.2484 280.934 31.2484 281.722C31.2484 282.468 31.0119 283.063 30.5529 283.546C30.0939 284.03 29.468 284.251 28.703 284.251ZM26.422 274.341V270.126H32.6253C33.2095 270.126 33.6685 270.043 33.9884 269.877C34.3083 269.711 34.5309 269.421 34.656 268.992C34.7812 268.564 34.8508 267.97 34.8508 267.168V256.525H39.1347V267.168C39.1347 269.725 38.634 271.549 37.6325 272.669C36.6311 273.788 34.962 274.341 32.6253 274.341H26.422ZM34.9759 284.251C34.211 284.251 33.5851 284.016 33.1261 283.546C32.6671 283.076 32.4306 282.468 32.4306 281.722C32.4306 280.934 32.6671 280.312 33.1261 279.87C33.5851 279.428 34.211 279.193 34.9759 279.193C35.7409 279.193 36.3668 279.414 36.8258 279.87C37.2848 280.312 37.5213 280.934 37.5213 281.722C37.5213 282.468 37.2848 283.063 36.8258 283.546C36.3668 284.03 35.7409 284.251 34.9759 284.251ZM37.3683 267.942C38.2723 268.757 39.1208 269.324 39.9275 269.642C40.7342 269.96 41.7496 270.126 42.9596 270.126H44.4479V274.341H42.8762C41.5966 274.341 40.5256 274.175 39.6771 273.858C38.8287 273.54 37.9385 272.987 37.0205 272.185L37.3683 267.928V267.942Z" fill="white"></path><path d="M45.2153 270.127C45.7577 270.127 46.175 269.974 46.481 269.684C46.787 269.394 47.0095 268.896 47.1347 268.192C47.2599 267.487 47.3294 266.519 47.3294 265.303H50.139C50.139 267.625 49.986 269.435 49.68 270.721C49.374 272.006 48.8594 272.932 48.164 273.499C47.4546 274.066 46.481 274.342 45.2153 274.342H43.6714V270.127H45.2153ZM56.245 274.646C53.2129 274.646 50.9735 273.872 49.5131 272.324C48.0666 270.776 47.3294 268.413 47.3294 265.22C47.3294 262.027 48.0527 259.622 49.5131 258.074C50.9596 256.526 53.2129 255.752 56.245 255.752C59.2772 255.752 61.4747 256.526 62.9074 258.074C64.34 259.622 65.0632 262 65.0632 265.22C65.0632 268.44 64.34 270.776 62.9074 272.324C61.4747 273.872 59.2493 274.646 56.245 274.646ZM56.245 271.011C57.8445 271.011 58.9851 270.569 59.6944 269.67C60.4038 268.772 60.7515 267.293 60.7515 265.234C60.7515 263.174 60.4038 261.682 59.6944 260.797C58.9851 259.899 57.8306 259.456 56.245 259.456C54.6594 259.456 53.4632 259.899 52.74 260.797C52.0167 261.695 51.6551 263.174 51.6551 265.234C51.6551 267.293 52.0167 268.786 52.74 269.67C53.4632 270.569 54.6316 271.011 56.245 271.011ZM61.8364 267.943C62.6848 268.758 63.4776 269.325 64.2287 269.643C64.9798 269.961 65.8978 270.127 67.0105 270.127H67.9285V274.342H66.927C65.7448 274.342 64.7572 274.176 63.9783 273.858C63.1994 273.54 62.3788 272.988 61.5304 272.186L61.8364 267.929V267.943Z" fill="white"></path><path d="M67.144 274.342V270.127H70.2596C70.8438 270.127 71.3028 270.044 71.6227 269.878C71.9426 269.712 72.1651 269.422 72.2903 268.993C72.4155 268.565 72.4851 267.97 72.4851 267.169V245.193H76.769V267.169C76.769 269.726 76.2683 271.55 75.2668 272.67C74.2654 273.775 72.5963 274.342 70.2596 274.342H67.144Z" fill="white"></path><path d="M82.1851 266.257V245.193H86.469V266.146L82.1851 266.257ZM88.6944 274.342C86.3577 274.342 84.6887 273.789 83.6872 272.67C82.6858 271.564 82.1851 269.726 82.1851 267.169V259.774H86.469V267.169C86.469 267.957 86.5385 268.565 86.6637 268.993C86.7889 269.408 87.0114 269.712 87.3313 269.878C87.6512 270.044 88.1102 270.127 88.6944 270.127H93.4652V274.342H88.6944Z" fill="white"></path><path d="M92.6853 274.341V270.126H96.8023C97.9568 270.126 99.139 270.029 100.349 269.822C99.292 268.979 98.4018 268.053 97.6508 267.044C96.8997 266.035 96.3433 265.026 95.9539 264.003C95.5644 262.98 95.3697 262.026 95.3697 261.128C95.3697 259.317 96.1486 257.963 97.7203 257.092C99.292 256.208 101.684 255.765 104.925 255.765C108.166 255.765 110.6 256.208 112.172 257.092C113.743 257.977 114.522 259.317 114.522 261.128C114.522 262.026 114.328 262.98 113.924 264.003C113.521 265.026 112.951 266.035 112.213 267.044C111.462 268.053 110.586 268.979 109.557 269.822C110.767 270.029 111.935 270.126 113.062 270.126H117.221V274.341H113.062C110.21 274.341 107.498 273.775 104.925 272.655C102.352 273.775 99.6397 274.341 96.7884 274.341H92.6714H92.6853ZM99.6258 261.93C99.6258 262.538 99.8066 263.243 100.182 264.031C100.558 264.818 101.142 265.62 101.935 266.422C102.728 267.223 103.729 267.928 104.939 268.509C106.149 267.928 107.151 267.223 107.971 266.422C108.778 265.62 109.376 264.818 109.738 264.031C110.113 263.243 110.294 262.538 110.294 261.93C110.294 261.142 109.877 260.575 109.056 260.23C108.235 259.884 106.858 259.718 104.939 259.718C103.02 259.718 101.643 259.884 100.836 260.23C100.029 260.575 99.6258 261.142 99.6258 261.93Z" fill="white"></path><path d="M116.472 274.342V270.127H121.117C121.701 270.127 122.16 270.044 122.48 269.878C122.8 269.712 123.023 269.422 123.148 268.993C123.273 268.579 123.343 267.97 123.343 267.169V245.193H127.627V267.169C127.627 269.726 127.126 271.55 126.124 272.67C125.123 273.789 123.454 274.342 121.117 274.342H116.472Z" fill="white"></path><path d="M133.019 274.342V245.193H137.261V274.342H133.019Z" fill="white"></path></svg>